M48
INCH
VER,1
FMAT,2
T1C0.1250
T2C0.0200
T3C0.0370
%
G05
T2
X2.0562Y1.9563
X2.0750Y1.8687
X2.0188Y1.8313
X1.7938Y1.8188
X2.0750Y1.7937
X0.4938Y1.7812
X0.6937Y1.7812
X0.7937Y1.7812
X0.8937Y1.7812
X0.9937Y1.7812
X1.0938Y1.7812
X1.1937Y1.7812
X1.2938Y1.7812
X2.0188Y1.7563
X1.7125Y1.7312
X1.6562Y1.7125
X1.6000Y1.6938
X1.6000Y1.6375
X0.7937Y1.4438
X0.6937Y1.3938
X1.7938Y1.3188
X3.5000Y1.2563
X2.0000Y1.2250
X1.7938Y1.1812
X2.0625Y1.1625
X2.1250Y1.1562
X2.1875Y1.1562
X2.2500Y1.1562
X2.3125Y1.1562
X2.6875Y1.1562
X0.7937Y1.1312
X2.3875Y1.1062
X0.6937Y1.0875
X0.4438Y1.0312
X2.1250Y0.9812
X2.1875Y0.9812
X2.2500Y0.9812
X2.3125Y0.9812
X2.3875Y0.9812
X2.6875Y0.9062
X0.4438Y0.6375
X3.5000Y0.1562
T3
X2.8688Y2.1672
X1.8938Y2.1563
X1.7938Y2.1563
X1.6938Y2.1563
X1.5938Y2.1563
X1.4937Y2.1563
X3.5875Y2.1562
X4.3375Y2.1562
X1.3938Y2.1562
X1.2937Y2.1562
X1.1938Y2.1562
X1.0938Y2.1562
X0.9938Y2.1562
X2.9875Y2.1562
X3.7375Y2.1562
X0.8938Y2.1562
X0.7937Y2.1562
X0.6937Y2.1562
X0.4937Y2.1562
X0.5938Y2.1562
X0.3938Y2.1562
X0.2937Y2.1562
X0.1937Y2.1562
X0.0938Y2.1562
X2.3875Y2.1313
X2.2625Y2.1313
X3.5875Y2.0563
X4.3375Y2.0563
X2.9875Y2.0562
X3.7375Y2.0562
X2.6922Y1.9875
X2.4953Y1.9875
X2.8688Y1.9703
X1.5937Y1.9563
X1.3937Y1.9563
X0.5938Y1.9563
X0.8938Y1.9563
X1.0937Y1.9563
X1.4937Y1.9563
X1.6938Y1.9563
X1.8937Y1.9563
X3.5875Y1.9563
X4.3375Y1.9563
X0.1937Y1.9563
X0.3938Y1.9563
X0.4937Y1.9563
X0.6937Y1.9563
X0.7937Y1.9563
X0.9937Y1.9563
X1.1937Y1.9563
X1.2937Y1.9563
X2.9875Y1.9563
X3.7375Y1.9563
X0.2937Y1.9563
X1.7938Y1.9563
X0.0937Y1.9562
X3.5875Y1.8563
X4.3375Y1.8563
X2.7688Y1.8563
X2.9875Y1.8563
X3.7375Y1.8563
X2.4688Y1.8562
X2.7688Y1.7563
X2.9875Y1.7563
X3.5875Y1.7563
X3.7375Y1.7563
X4.3375Y1.7563
X2.4688Y1.7563
X3.5875Y1.6563
X4.3375Y1.6563
X2.9875Y1.6562
X3.7375Y1.6562
X2.4688Y1.6562
X2.7688Y1.6562
X3.5875Y1.5563
X4.3375Y1.5563
X2.7688Y1.5562
X2.9875Y1.5562
X3.7375Y1.5562
X2.4688Y1.5562
X3.5875Y1.4563
X4.3375Y1.4563
X2.4688Y1.4563
X2.7688Y1.4563
X2.9875Y1.4563
X3.7375Y1.4563
X3.5875Y1.3563
X4.3375Y1.3563
X2.9875Y1.3563
X3.7375Y1.3563
X2.4688Y1.3562
X2.7688Y1.3562
X2.9875Y1.2563
X3.5875Y1.2563
X3.7375Y1.2563
X4.3375Y1.2563
X2.7688Y1.2563
X2.4688Y1.2562
X2.4688Y1.1562
X2.7688Y1.1562
X2.9875Y1.1562
X3.5875Y1.1562
X3.7375Y1.1562
X4.3375Y1.1562
X3.5875Y1.0563
X4.3375Y1.0563
X2.9875Y1.0562
X3.7375Y1.0562
X1.7938Y0.9563
X0.1937Y0.9563
X1.5938Y0.9563
X1.6938Y0.9563
X1.8938Y0.9563
X0.0938Y0.9563
X0.2938Y0.9563
X0.3938Y0.9563
X0.4938Y0.9563
X0.5938Y0.9563
X0.6938Y0.9563
X0.7938Y0.9563
X0.8938Y0.9563
X0.9938Y0.9563
X1.0938Y0.9563
X1.1938Y0.9563
X1.2938Y0.9563
X1.3938Y0.9563
X1.4938Y0.9563
X3.5875Y0.9563
X4.3375Y0.9563
X2.9875Y0.9562
X3.7375Y0.9562
X2.9875Y0.8563
X3.5875Y0.8563
X3.7375Y0.8563
X4.3375Y0.8563
X2.7688Y0.8000
X2.2688Y0.8000
X2.3688Y0.8000
X2.4688Y0.8000
X2.5688Y0.8000
X2.6688Y0.8000
X1.4937Y0.7563
X1.5938Y0.7563
X1.6938Y0.7563
X1.7938Y0.7563
X1.8938Y0.7563
X0.0938Y0.7563
X0.1937Y0.7563
X0.2937Y0.7563
X0.3937Y0.7563
X0.4938Y0.7563
X0.5938Y0.7563
X0.6937Y0.7563
X0.7937Y0.7563
X0.8937Y0.7563
X0.9938Y0.7563
X1.0938Y0.7563
X1.1938Y0.7563
X1.2937Y0.7563
X1.3937Y0.7563
X2.9875Y0.7563
X3.5875Y0.7563
X3.7375Y0.7563
X4.3375Y0.7563
X2.2688Y0.7000
X2.3688Y0.7000
X2.4688Y0.7000
X2.5688Y0.7000
X2.6688Y0.7000
X2.7688Y0.7000
X2.9875Y0.6562
X3.5875Y0.6562
X3.7375Y0.6562
X4.3375Y0.6562
X3.5875Y0.5563
X4.3375Y0.5563
X2.9875Y0.5562
X3.7375Y0.5562
X0.9938Y0.5187
X1.1938Y0.5187
X1.3938Y0.5187
X1.6063Y0.5187
X0.1437Y0.5125
X0.2750Y0.5125
X0.3750Y0.5125
X0.5938Y0.5125
X0.7937Y0.5125
X3.5875Y0.4563
X4.3375Y0.4563
X2.9875Y0.4562
X3.7375Y0.4562
X0.9938Y0.4187
X1.1938Y0.4187
X1.3938Y0.4187
X1.6063Y0.4187
X0.1437Y0.4125
X0.5938Y0.4125
X0.7937Y0.4125
X2.9875Y0.3563
X3.5875Y0.3563
X3.7375Y0.3563
X4.3375Y0.3563
X0.2750Y0.3437
X0.3750Y0.3437
X2.6375Y0.3062
X0.1437Y0.2875
X2.9875Y0.2563
X3.5875Y0.2563
X3.7375Y0.2563
X4.3375Y0.2563
X0.5750Y0.2188
X0.6750Y0.2188
X0.7750Y0.2188
X0.8750Y0.2188
X1.1063Y0.2188
X1.2063Y0.2188
X1.3063Y0.2188
X1.4063Y0.2188
X1.5063Y0.2188
X1.6063Y0.2188
X1.8938Y0.2125
X1.9938Y0.2125
X2.0938Y0.2125
X2.1938Y0.2125
X2.2938Y0.2125
X2.3938Y0.2125
X2.6375Y0.2062
X0.1437Y0.1875
M30
