%FSLAX46Y46*%
%MOIN*%
G01*
G75*
%ADD10C,0.008000*%
%ADD11C,0.010000*%
%ADD12C,0.063000*%
%AMRECT13*21,1,0.063000,0.063000,0.0,0.0,0.000000*%
%ADD13RECT13*%
%AMRECT14*21,1,0.063000,0.063000,0.0,0.0,-90.000000*%
%ADD14RECT14*%
%AMRECT15*21,1,0.063000,0.063000,0.0,0.0,-180.000000*%
%ADD15RECT15*%
%AMRECT16*21,1,0.063000,0.063000,0.0,0.0,-270.000000*%
%ADD16RECT16*%
D10*
G01X2409297Y121321D02*
G01X2409297Y121321D01*
G01X2409578Y121126D01*
G01X2409852Y120922D01*
G01X2410119Y120709D01*
G01X2410379Y120487D01*
G01X2410631Y120256D01*
G01X2410875Y120017D01*
G01X2411111Y119769D01*
G01X2411338Y119514D01*
G01X2411556Y119251D01*
G01X2411765Y118980D01*
G01X2411964Y118703D01*
G01X2412154Y118419D01*
G01X2412335Y118129D01*
G01X2412505Y117832D01*
G01X2412665Y117530D01*
G01X2412814Y117223D01*
G01X2412953Y116911D01*
G01X2413082Y116594D01*
G01X2413199Y116273D01*
G01X2413305Y115949D01*
G01X2413401Y115620D01*
G01X2413484Y115289D01*
G01X2413557Y114955D01*
G01X2413618Y114619D01*
G01X2413668Y114281D01*
G01X2413706Y113941D01*
G01X2413732Y113601D01*
G01X2413747Y113259D01*
G01X2413750Y113000D01*
G01X2413744Y112658D01*
G01X2413727Y112317D01*
G01X2413697Y111977D01*
G01X2413657Y111637D01*
G01X2413604Y111300D01*
G01X2413541Y110964D01*
G01X2413465Y110631D01*
G01X2413379Y110300D01*
G01X2413281Y109973D01*
G01X2413172Y109649D01*
G01X2413052Y109329D01*
G01X2412921Y109013D01*
G01X2412779Y108702D01*
G01X2412627Y108396D01*
G01X2412465Y108095D01*
G01X2412292Y107801D01*
G01X2412109Y107512D01*
G01X2411917Y107229D01*
G01X2411715Y106954D01*
G01X2411504Y106685D01*
G01X2411284Y106424D01*
G01X2411054Y106170D01*
G01X2410817Y105925D01*
G01X2410571Y105687D01*
G01X2410317Y105459D01*
G01X2410056Y105239D01*
G01X2409787Y105028D01*
G01X2409511Y104826D01*
G01X2409228Y104634D01*
G01X2408939Y104452D01*
G01X2408644Y104279D01*
G01X2408343Y104117D01*
G01X2408037Y103966D01*
G01X2407726Y103824D01*
G01X2407410Y103694D01*
G01X2407090Y103574D01*
G01X2406766Y103466D01*
G01X2406438Y103368D01*
G01X2406108Y103282D01*
G01X2405774Y103207D01*
G01X2405438Y103144D01*
G01X2405101Y103092D01*
G01X2404761Y103051D01*
G01X2404421Y103023D01*
G01X2404080Y103005D01*
G01X2403750Y103000D01*
X2403750Y103000D02*
X2383750Y103000D01*
G01X2383750Y103000D02*
G01X2383750Y103000D01*
G01X2383380Y103007D01*
G01X2383010Y103027D01*
G01X2382641Y103062D01*
G01X2382274Y103110D01*
G01X2381909Y103171D01*
G01X2381546Y103246D01*
G01X2381186Y103334D01*
G01X2380830Y103436D01*
G01X2380478Y103550D01*
G01X2380130Y103678D01*
G01X2379788Y103818D01*
G01X2379450Y103972D01*
G01X2379119Y104137D01*
G01X2378794Y104314D01*
G01X2378476Y104504D01*
G01X2378165Y104705D01*
G01X2377862Y104918D01*
G01X2377566Y105141D01*
G01X2377280Y105375D01*
G01X2377002Y105620D01*
G01X2376733Y105875D01*
G01X2376474Y106140D01*
G01X2376225Y106414D01*
G01X2375986Y106697D01*
G01X2375758Y106989D01*
G01X2375541Y107289D01*
G01X2375335Y107597D01*
G01X2375141Y107912D01*
G01X2374959Y108235D01*
G01X2374788Y108563D01*
G01X2374630Y108898D01*
G01X2374484Y109239D01*
G01X2374351Y109584D01*
G01X2374231Y109935D01*
G01X2374124Y110289D01*
G01X2374031Y110648D01*
G01X2373950Y111009D01*
G01X2373883Y111373D01*
G01X2373830Y111740D01*
G01X2373790Y112108D01*
G01X2373764Y112477D01*
G01X2373751Y112848D01*
G01X2373752Y113218D01*
G01X2373767Y113588D01*
G01X2373796Y113957D01*
G01X2373838Y114325D01*
G01X2373894Y114691D01*
G01X2373963Y115055D01*
G01X2374046Y115416D01*
G01X2374142Y115774D01*
G01X2374252Y116128D01*
G01X2374374Y116477D01*
G01X2374509Y116822D01*
G01X2374657Y117161D01*
G01X2374817Y117495D01*
G01X2374990Y117823D01*
G01X2375175Y118144D01*
G01X2375371Y118458D01*
G01X2375579Y118765D01*
G01X2375798Y119063D01*
G01X2376028Y119354D01*
G01X2376268Y119635D01*
G01X2376519Y119908D01*
G01X2376679Y120071D01*
G01X2413750Y141000D02*
G01X2413750Y141000D01*
G01X2413746Y140722D01*
G01X2413735Y140445D01*
G01X2413715Y140168D01*
G01X2413688Y139891D01*
G01X2413654Y139616D01*
G01X2413611Y139341D01*
G01X2413562Y139068D01*
G01X2413504Y138796D01*
G01X2413439Y138526D01*
G01X2413367Y138258D01*
G01X2413287Y137992D01*
G01X2413200Y137728D01*
G01X2413105Y137467D01*
G01X2413003Y137208D01*
G01X2412894Y136953D01*
G01X2412778Y136700D01*
G01X2412656Y136451D01*
G01X2412526Y136206D01*
G01X2412389Y135964D01*
G01X2412246Y135726D01*
G01X2412096Y135492D01*
G01X2411940Y135262D01*
G01X2411778Y135037D01*
G01X2411609Y134816D01*
G01X2411434Y134600D01*
G01X2411253Y134389D01*
G01X2411067Y134184D01*
G01X2410875Y133983D01*
G01X2410677Y133788D01*
G01X2410474Y133598D01*
G01X2410266Y133414D01*
G01X2410053Y133236D01*
G01X2409835Y133064D01*
G01X2409612Y132898D01*
G01X2409385Y132739D01*
G01X2409153Y132585D01*
G01X2408917Y132438D01*
G01X2408677Y132298D01*
G01X2408434Y132165D01*
G01X2408187Y132038D01*
G01X2407936Y131918D01*
G01X2407682Y131806D01*
G01X2407425Y131700D01*
G01X2407166Y131601D01*
G01X2406903Y131510D01*
G01X2406638Y131426D01*
G01X2406371Y131350D01*
G01X2406102Y131281D01*
G01X2405832Y131219D01*
G01X2405559Y131165D01*
G01X2405285Y131119D01*
G01X2405010Y131080D01*
G01X2404734Y131049D01*
G01X2404457Y131025D01*
G01X2404180Y131009D01*
G01X2403902Y131001D01*
G01X2403625Y131001D01*
G01X2403347Y131008D01*
G01X2403070Y131023D01*
G01X2402793Y131046D01*
G01X2402517Y131076D01*
G01X2402242Y131114D01*
G01X2401968Y131160D01*
G01X2401695Y131213D01*
G01X2401424Y131274D01*
G01X2401155Y131343D01*
G01X2400887Y131418D01*
G01X2400622Y131502D01*
G01X2400360Y131592D01*
G01X2400100Y131690D01*
G01X2399843Y131795D01*
G01X2399589Y131907D01*
G01X2399338Y132026D01*
G01X2399090Y132152D01*
G01X2398846Y132285D01*
G01X2398606Y132425D01*
G01X2398370Y132571D01*
G01X2398138Y132723D01*
G01X2397910Y132882D01*
G01X2397687Y133048D01*
G01X2397468Y133219D01*
G01X2397255Y133397D01*
G01X2397046Y133580D01*
G01X2396842Y133769D01*
G01X2396644Y133964D01*
G01X2396452Y134164D01*
G01X2396265Y134369D01*
G01X2396083Y134580D01*
G01X2395908Y134795D01*
G01X2395739Y135015D01*
G01X2395575Y135240D01*
G01X2395419Y135469D01*
G01X2395268Y135703D01*
G01X2395124Y135941D01*
G01X2394987Y136182D01*
G01X2394857Y136427D01*
G01X2394733Y136676D01*
G01X2394617Y136928D01*
G01X2394507Y137183D01*
G01X2394405Y137442D01*
G01X2394309Y137703D01*
G01X2394221Y137966D01*
G01X2394141Y138232D01*
G01X2394068Y138500D01*
G01X2394002Y138770D01*
G01X2393944Y139041D01*
G01X2393893Y139314D01*
G01X2393850Y139589D01*
G01X2393815Y139864D01*
G01X2393787Y140141D01*
G01X2393767Y140418D01*
G01X2393755Y140695D01*
G01X2393750Y140973D01*
G01X2393750Y141000D01*
G01X2373750Y141000D02*
G01X2373750Y141000D01*
G01X2373754Y141278D01*
G01X2373765Y141555D01*
G01X2373785Y141832D01*
G01X2373812Y142109D01*
G01X2373846Y142384D01*
G01X2373889Y142659D01*
G01X2373938Y142932D01*
G01X2373996Y143204D01*
G01X2374061Y143474D01*
G01X2374133Y143742D01*
G01X2374213Y144008D01*
G01X2374300Y144272D01*
G01X2374395Y144533D01*
G01X2374497Y144792D01*
G01X2374606Y145047D01*
G01X2374722Y145300D01*
G01X2374844Y145549D01*
G01X2374974Y145794D01*
G01X2375111Y146036D01*
G01X2375254Y146274D01*
G01X2375404Y146508D01*
G01X2375560Y146738D01*
G01X2375722Y146963D01*
G01X2375891Y147184D01*
G01X2376066Y147400D01*
G01X2376247Y147611D01*
G01X2376433Y147816D01*
G01X2376625Y148017D01*
G01X2376823Y148212D01*
G01X2377026Y148402D01*
G01X2377234Y148586D01*
G01X2377447Y148764D01*
G01X2377665Y148936D01*
G01X2377888Y149102D01*
G01X2378115Y149261D01*
G01X2378347Y149415D01*
G01X2378583Y149562D01*
G01X2378823Y149702D01*
G01X2379066Y149835D01*
G01X2379313Y149962D01*
G01X2379564Y150082D01*
G01X2379818Y150194D01*
G01X2380075Y150300D01*
G01X2380334Y150399D01*
G01X2380597Y150490D01*
G01X2380862Y150574D01*
G01X2381129Y150650D01*
G01X2381398Y150719D01*
G01X2381668Y150781D01*
G01X2381941Y150835D01*
G01X2382215Y150881D01*
G01X2382490Y150920D01*
G01X2382766Y150951D01*
G01X2383043Y150975D01*
G01X2383320Y150991D01*
G01X2383598Y150999D01*
G01X2383875Y150999D01*
G01X2384153Y150992D01*
G01X2384430Y150977D01*
G01X2384707Y150954D01*
G01X2384983Y150924D01*
G01X2385258Y150886D01*
G01X2385532Y150840D01*
G01X2385805Y150787D01*
G01X2386076Y150726D01*
G01X2386345Y150657D01*
G01X2386613Y150582D01*
G01X2386878Y150498D01*
G01X2387140Y150408D01*
G01X2387400Y150310D01*
G01X2387657Y150205D01*
G01X2387911Y150093D01*
G01X2388162Y149974D01*
G01X2388410Y149848D01*
G01X2388654Y149715D01*
G01X2388894Y149575D01*
G01X2389130Y149429D01*
G01X2389362Y149277D01*
G01X2389590Y149118D01*
G01X2389813Y148952D01*
G01X2390032Y148781D01*
G01X2390245Y148603D01*
G01X2390454Y148420D01*
G01X2390658Y148231D01*
G01X2390856Y148036D01*
G01X2391048Y147836D01*
G01X2391235Y147631D01*
G01X2391417Y147420D01*
G01X2391592Y147205D01*
G01X2391761Y146985D01*
G01X2391925Y146760D01*
G01X2392081Y146531D01*
G01X2392232Y146297D01*
G01X2392376Y146059D01*
G01X2392513Y145818D01*
G01X2392643Y145573D01*
G01X2392767Y145324D01*
G01X2392883Y145072D01*
G01X2392993Y144817D01*
G01X2393095Y144558D01*
G01X2393191Y144297D01*
G01X2393279Y144034D01*
G01X2393359Y143768D01*
G01X2393432Y143500D01*
G01X2393498Y143230D01*
G01X2393556Y142959D01*
G01X2393607Y142686D01*
G01X2393650Y142411D01*
G01X2393685Y142136D01*
G01X2393713Y141859D01*
G01X2393733Y141582D01*
G01X2393745Y141305D01*
G01X2393750Y141027D01*
G01X2393750Y141000D01*
X2413750Y141000D02*
X2413750Y151000D01*
X2373750Y141000D02*
X2373750Y131000D01*
X895000Y53250D02*
X855000Y53250D01*
G01X855000Y63250D02*
G01X855000Y63250D01*
G01X855015Y63805D01*
G01X855062Y64359D01*
G01X855139Y64909D01*
G01X855246Y65454D01*
G01X855383Y65992D01*
G01X855550Y66522D01*
G01X855747Y67042D01*
G01X855972Y67550D01*
G01X856224Y68044D01*
G01X856504Y68524D01*
G01X856810Y68988D01*
G01X857141Y69434D01*
G01X857497Y69861D01*
G01X857875Y70267D01*
G01X858276Y70652D01*
G01X858697Y71014D01*
G01X859138Y71352D01*
G01X859597Y71665D01*
G01X860073Y71952D01*
G01X860563Y72212D01*
G01X861068Y72444D01*
G01X861584Y72649D01*
G01X862112Y72824D01*
G01X862648Y72969D01*
G01X863191Y73085D01*
G01X863740Y73170D01*
G01X864293Y73225D01*
G01X864848Y73249D01*
G01X865000Y73250D01*
X855000Y63250D02*
X855000Y53250D01*
X865000Y73250D02*
X885000Y73250D01*
G01X885000Y73250D02*
G01X885000Y73250D01*
G01X885555Y73235D01*
G01X886109Y73188D01*
G01X886659Y73111D01*
G01X887204Y73004D01*
G01X887742Y72867D01*
G01X888272Y72700D01*
G01X888792Y72503D01*
G01X889300Y72278D01*
G01X889794Y72026D01*
G01X890274Y71746D01*
G01X890738Y71440D01*
G01X891184Y71109D01*
G01X891611Y70753D01*
G01X892017Y70375D01*
G01X892402Y69974D01*
G01X892764Y69553D01*
G01X893102Y69112D01*
G01X893415Y68653D01*
G01X893702Y68177D01*
G01X893962Y67687D01*
G01X894194Y67182D01*
G01X894399Y66666D01*
G01X894574Y66138D01*
G01X894719Y65602D01*
G01X894835Y65059D01*
G01X894920Y64510D01*
G01X894975Y63957D01*
G01X894999Y63402D01*
G01X895000Y63250D01*
X895000Y63250D02*
X895000Y53250D01*
G01X865000Y101250D02*
G01X865139Y101249D01*
G01X865278Y101246D01*
G01X865417Y101241D01*
G01X865555Y101235D01*
G01X865694Y101226D01*
G01X865832Y101215D01*
G01X865971Y101203D01*
G01X866109Y101188D01*
G01X866247Y101172D01*
G01X866384Y101154D01*
G01X866522Y101134D01*
G01X866659Y101111D01*
G01X866796Y101087D01*
G01X866932Y101062D01*
G01X867068Y101034D01*
G01X867204Y101004D01*
G01X867339Y100973D01*
G01X867474Y100939D01*
G01X867608Y100904D01*
G01X867742Y100867D01*
G01X867875Y100828D01*
G01X868008Y100787D01*
G01X868140Y100744D01*
G01X868272Y100700D01*
G01X868403Y100653D01*
G01X868533Y100605D01*
G01X868663Y100555D01*
G01X868792Y100503D01*
G01X868920Y100450D01*
G01X869047Y100394D01*
G01X869174Y100337D01*
G01X869300Y100278D01*
G01X869425Y100218D01*
G01X869549Y100156D01*
G01X869672Y100092D01*
G01X869794Y100026D01*
G01X869916Y99958D01*
G01X870036Y99889D01*
G01X870156Y99819D01*
G01X870274Y99746D01*
G01X870392Y99672D01*
G01X870508Y99596D01*
G01X870623Y99519D01*
G01X870738Y99440D01*
G01X870851Y99360D01*
G01X870963Y99278D01*
G01X871074Y99194D01*
G01X871184Y99109D01*
G01X871292Y99022D01*
G01X871400Y98934D01*
G01X871506Y98844D01*
G01X871611Y98753D01*
G01X871714Y98661D01*
G01X871816Y98567D01*
G01X871917Y98472D01*
G01X872017Y98375D01*
G01X872115Y98277D01*
G01X872212Y98177D01*
G01X872308Y98076D01*
G01X872402Y97974D01*
G01X872494Y97871D01*
G01X872586Y97766D01*
G01X872675Y97660D01*
G01X872764Y97553D01*
G01X872851Y97444D01*
G01X872936Y97335D01*
G01X873020Y97224D01*
G01X873102Y97112D01*
G01X873182Y96999D01*
G01X873261Y96885D01*
G01X873339Y96769D01*
G01X873415Y96653D01*
G01X873489Y96536D01*
G01X873562Y96417D01*
G01X873632Y96298D01*
G01X873702Y96177D01*
G01X873769Y96056D01*
G01X873835Y95934D01*
G01X873899Y95811D01*
G01X873962Y95687D01*
G01X874023Y95562D01*
G01X874082Y95436D01*
G01X874139Y95310D01*
G01X874194Y95182D01*
G01X874248Y95054D01*
G01X874300Y94925D01*
G01X874350Y94796D01*
G01X874399Y94666D01*
G01X874445Y94535D01*
G01X874490Y94403D01*
G01X874533Y94271D01*
G01X874574Y94138D01*
G01X874613Y94005D01*
G01X874650Y93871D01*
G01X874686Y93737D01*
G01X874719Y93602D01*
G01X874751Y93467D01*
G01X874781Y93332D01*
G01X874809Y93195D01*
G01X874835Y93059D01*
G01X874859Y92922D01*
G01X874881Y92785D01*
G01X874902Y92648D01*
G01X874920Y92510D01*
G01X874937Y92372D01*
G01X874951Y92234D01*
G01X874964Y92096D01*
G01X874975Y91957D01*
G01X874984Y91819D01*
G01X874991Y91680D01*
G01X874996Y91541D01*
G01X874999Y91402D01*
G01X875000Y91264D01*
G01X874999Y91125D01*
G01X874997Y90986D01*
G01X874992Y90847D01*
G01X874985Y90708D01*
G01X874977Y90570D01*
G01X874966Y90431D01*
G01X874954Y90293D01*
G01X874940Y90155D01*
G01X874924Y90017D01*
G01X874906Y89879D01*
G01X874886Y89742D01*
G01X874864Y89604D01*
G01X874840Y89468D01*
G01X874814Y89331D01*
G01X874787Y89195D01*
G01X874757Y89059D01*
G01X874726Y88924D01*
G01X874692Y88789D01*
G01X874657Y88655D01*
G01X874620Y88521D01*
G01X874582Y88387D01*
G01X874541Y88255D01*
G01X874498Y88122D01*
G01X874454Y87991D01*
G01X874408Y87860D01*
G01X874360Y87730D01*
G01X874310Y87600D01*
G01X874258Y87471D01*
G01X874205Y87343D01*
G01X874150Y87215D01*
G01X874093Y87089D01*
G01X874034Y86963D01*
G01X873974Y86838D01*
G01X873912Y86713D01*
G01X873848Y86590D01*
G01X873782Y86468D01*
G01X873715Y86346D01*
G01X873646Y86226D01*
G01X873575Y86106D01*
G01X873503Y85987D01*
G01X873429Y85870D01*
G01X873354Y85753D01*
G01X873277Y85638D01*
G01X873198Y85523D01*
G01X873118Y85410D01*
G01X873036Y85298D01*
G01X872952Y85187D01*
G01X872867Y85077D01*
G01X872781Y84968D01*
G01X872693Y84861D01*
G01X872603Y84755D01*
G01X872512Y84650D01*
G01X872420Y84546D01*
G01X872326Y84444D01*
G01X872231Y84342D01*
G01X872134Y84243D01*
G01X872036Y84144D01*
G01X871937Y84047D01*
G01X871836Y83952D01*
G01X871734Y83857D01*
G01X871631Y83765D01*
G01X871526Y83673D01*
G01X871420Y83583D01*
G01X871313Y83495D01*
G01X871205Y83408D01*
G01X871095Y83322D01*
G01X870985Y83239D01*
G01X870873Y83156D01*
G01X870760Y83075D01*
G01X870646Y82996D01*
G01X870531Y82919D01*
G01X870414Y82843D01*
G01X870297Y82768D01*
G01X870179Y82695D01*
G01X870059Y82624D01*
G01X869939Y82555D01*
G01X869818Y82487D01*
G01X869696Y82421D01*
G01X869573Y82357D01*
G01X869449Y82294D01*
G01X869324Y82233D01*
G01X869198Y82174D01*
G01X869072Y82117D01*
G01X868945Y82061D01*
G01X868817Y82007D01*
G01X868688Y81955D01*
G01X868558Y81905D01*
G01X868428Y81856D01*
G01X868297Y81809D01*
G01X868166Y81764D01*
G01X868034Y81721D01*
G01X867901Y81680D01*
G01X867768Y81641D01*
G01X867634Y81603D01*
G01X867500Y81568D01*
G01X867366Y81534D01*
G01X867230Y81502D01*
G01X867095Y81472D01*
G01X866959Y81444D01*
G01X866822Y81417D01*
G01X866686Y81393D01*
G01X866549Y81371D01*
G01X866411Y81350D01*
G01X866274Y81331D01*
G01X866136Y81315D01*
G01X865998Y81300D01*
G01X865859Y81287D01*
G01X865721Y81276D01*
G01X865582Y81267D01*
G01X865444Y81260D01*
G01X865305Y81255D01*
G01X865166Y81251D01*
G01X865027Y81250D01*
G01X864888Y81251D01*
G01X864749Y81253D01*
G01X864610Y81258D01*
G01X864472Y81264D01*
G01X864333Y81272D01*
G01X864195Y81282D01*
G01X864056Y81295D01*
G01X863918Y81309D01*
G01X863780Y81325D01*
G01X863642Y81343D01*
G01X863505Y81362D01*
G01X863368Y81384D01*
G01X863231Y81408D01*
G01X863094Y81433D01*
G01X862958Y81461D01*
G01X862822Y81490D01*
G01X862687Y81521D01*
G01X862552Y81554D01*
G01X862418Y81589D01*
G01X862284Y81626D01*
G01X862150Y81665D01*
G01X862018Y81705D01*
G01X861885Y81747D01*
G01X861754Y81792D01*
G01X861623Y81838D01*
G01X861492Y81885D01*
G01X861362Y81935D01*
G01X861233Y81986D01*
G01X861105Y82040D01*
G01X860978Y82095D01*
G01X860851Y82151D01*
G01X860725Y82210D01*
G01X860600Y82270D01*
G01X860475Y82332D01*
G01X860352Y82396D01*
G01X860229Y82461D01*
G01X860108Y82528D01*
G01X859987Y82597D01*
G01X859868Y82668D01*
G01X859749Y82740D01*
G01X859631Y82813D01*
G01X859514Y82889D01*
G01X859399Y82966D01*
G01X859284Y83044D01*
G01X859171Y83125D01*
G01X859059Y83206D01*
G01X858948Y83290D01*
G01X858838Y83374D01*
G01X858729Y83461D01*
G01X858621Y83549D01*
G01X858515Y83638D01*
G01X858410Y83729D01*
G01X858306Y83821D01*
G01X858203Y83915D01*
G01X858102Y84010D01*
G01X858002Y84106D01*
G01X857904Y84204D01*
G01X857807Y84303D01*
G01X857711Y84404D01*
G01X857616Y84506D01*
G01X857523Y84609D01*
G01X857432Y84714D01*
G01X857342Y84819D01*
G01X857253Y84926D01*
G01X857166Y85034D01*
G01X857081Y85144D01*
G01X856997Y85254D01*
G01X856914Y85366D01*
G01X856833Y85479D01*
G01X856754Y85593D01*
G01X856676Y85708D01*
G01X856600Y85824D01*
G01X856525Y85941D01*
G01X856452Y86060D01*
G01X856381Y86179D01*
G01X856312Y86299D01*
G01X856244Y86420D01*
G01X856177Y86542D01*
G01X856113Y86665D01*
G01X856050Y86789D01*
G01X855989Y86914D01*
G01X855930Y87039D01*
G01X855872Y87166D01*
G01X855816Y87293D01*
G01X855762Y87421D01*
G01X855710Y87550D01*
G01X855659Y87679D01*
G01X855611Y87809D01*
G01X855564Y87940D01*
G01X855519Y88071D01*
G01X855475Y88203D01*
G01X855434Y88336D01*
G01X855395Y88469D01*
G01X855357Y88603D01*
G01X855321Y88737D01*
G01X855287Y88871D01*
G01X855255Y89006D01*
G01X855225Y89142D01*
G01X855196Y89278D01*
G01X855170Y89414D01*
G01X855145Y89551D01*
G01X855123Y89688D01*
G01X855102Y89825D01*
G01X855083Y89963D01*
G01X855066Y90101D01*
G01X855051Y90239D01*
G01X855038Y90377D01*
G01X855027Y90516D01*
G01X855018Y90654D01*
G01X855010Y90793D01*
G01X855005Y90932D01*
G01X855002Y91071D01*
G01X855000Y91209D01*
G01X855000Y91348D01*
G01X855003Y91487D01*
G01X855007Y91626D01*
G01X855013Y91765D01*
G01X855021Y91903D01*
G01X855031Y92042D01*
G01X855043Y92180D01*
G01X855057Y92319D01*
G01X855073Y92456D01*
G01X855091Y92594D01*
G01X855110Y92732D01*
G01X855132Y92869D01*
G01X855155Y93006D01*
G01X855181Y93142D01*
G01X855208Y93279D01*
G01X855237Y93414D01*
G01X855268Y93550D01*
G01X855301Y93685D01*
G01X855336Y93819D01*
G01X855372Y93953D01*
G01X855411Y94087D01*
G01X855451Y94220D01*
G01X855493Y94352D01*
G01X855537Y94484D01*
G01X855583Y94615D01*
G01X855631Y94745D01*
G01X855680Y94875D01*
G01X855731Y95004D01*
G01X855784Y95132D01*
G01X855839Y95260D01*
G01X855896Y95387D01*
G01X855954Y95513D01*
G01X856014Y95638D01*
G01X856076Y95763D01*
G01X856140Y95886D01*
G01X856205Y96009D01*
G01X856272Y96130D01*
G01X856340Y96251D01*
G01X856411Y96371D01*
G01X856483Y96490D01*
G01X856556Y96607D01*
G01X856631Y96724D01*
G01X856708Y96840D01*
G01X856787Y96955D01*
G01X856867Y97068D01*
G01X856948Y97180D01*
G01X857031Y97292D01*
G01X857116Y97402D01*
G01X857202Y97511D01*
G01X857290Y97618D01*
G01X857379Y97725D01*
G01X857470Y97830D01*
G01X857562Y97934D01*
G01X857656Y98037D01*
G01X857750Y98138D01*
G01X857847Y98238D01*
G01X857945Y98337D01*
G01X858044Y98434D01*
G01X858144Y98530D01*
G01X858246Y98624D01*
G01X858349Y98718D01*
G01X858453Y98809D01*
G01X858559Y98899D01*
G01X858666Y98988D01*
G01X858774Y99075D01*
G01X858883Y99161D01*
G01X858994Y99245D01*
G01X859105Y99328D01*
G01X859218Y99409D01*
G01X859332Y99488D01*
G01X859447Y99566D01*
G01X859563Y99643D01*
G01X859680Y99717D01*
G01X859798Y99791D01*
G01X859917Y99862D01*
G01X860037Y99932D01*
G01X860158Y100000D01*
G01X860280Y100066D01*
G01X860403Y100131D01*
G01X860527Y100194D01*
G01X860652Y100255D01*
G01X860777Y100315D01*
G01X860903Y100372D01*
G01X861031Y100428D01*
G01X861158Y100483D01*
G01X861287Y100535D01*
G01X861416Y100586D01*
G01X861546Y100635D01*
G01X861677Y100682D01*
G01X861808Y100727D01*
G01X861940Y100770D01*
G01X862073Y100812D01*
G01X862206Y100852D01*
G01X862339Y100890D01*
G01X862474Y100926D01*
G01X862608Y100960D01*
G01X862743Y100992D01*
G01X862879Y101022D01*
G01X863015Y101051D01*
G01X863151Y101078D01*
G01X863288Y101102D01*
G01X863425Y101125D01*
G01X863562Y101146D01*
G01X863700Y101165D01*
G01X863837Y101182D01*
G01X863976Y101197D01*
G01X864114Y101211D01*
G01X864252Y101222D01*
G01X864391Y101231D01*
G01X864529Y101239D01*
G01X864668Y101244D01*
G01X864807Y101248D01*
G01X864946Y101250D01*
G01X865000Y101250D01*
X865000Y101250D02*
X855000Y101250D01*
X875000Y114250D02*
X875000Y124250D01*
X877500Y119250D02*
X860000Y119250D01*
G01X860000Y119250D02*
G01X860000Y119250D01*
G01X859722Y119258D01*
G01X859446Y119281D01*
G01X859171Y119319D01*
G01X858898Y119373D01*
G01X858629Y119442D01*
G01X858364Y119525D01*
G01X858104Y119623D01*
G01X857850Y119736D01*
G01X857603Y119862D01*
G01X857363Y120002D01*
G01X857131Y120155D01*
G01X856908Y120321D01*
G01X856695Y120498D01*
G01X856492Y120688D01*
G01X856299Y120888D01*
G01X856118Y121099D01*
G01X855949Y121319D01*
G01X855793Y121548D01*
G01X855649Y121786D01*
G01X855519Y122032D01*
G01X855403Y122284D01*
G01X855301Y122542D01*
G01X855213Y122806D01*
G01X855140Y123074D01*
G01X855082Y123345D01*
G01X855040Y123620D01*
G01X855013Y123896D01*
G01X855001Y124174D01*
G01X855000Y124250D01*
G01X865000Y157250D02*
G01X865139Y157249D01*
G01X865278Y157246D01*
G01X865417Y157241D01*
G01X865555Y157235D01*
G01X865694Y157226D01*
G01X865832Y157215D01*
G01X865971Y157203D01*
G01X866109Y157188D01*
G01X866247Y157172D01*
G01X866384Y157154D01*
G01X866522Y157134D01*
G01X866659Y157111D01*
G01X866796Y157087D01*
G01X866932Y157062D01*
G01X867068Y157034D01*
G01X867204Y157004D01*
G01X867339Y156973D01*
G01X867474Y156939D01*
G01X867608Y156904D01*
G01X867742Y156867D01*
G01X867875Y156828D01*
G01X868008Y156787D01*
G01X868140Y156744D01*
G01X868272Y156700D01*
G01X868403Y156653D01*
G01X868533Y156605D01*
G01X868663Y156555D01*
G01X868792Y156503D01*
G01X868920Y156450D01*
G01X869047Y156394D01*
G01X869174Y156337D01*
G01X869300Y156278D01*
G01X869425Y156218D01*
G01X869549Y156156D01*
G01X869672Y156092D01*
G01X869794Y156026D01*
G01X869916Y155958D01*
G01X870036Y155889D01*
G01X870156Y155819D01*
G01X870274Y155746D01*
G01X870392Y155672D01*
G01X870508Y155596D01*
G01X870623Y155519D01*
G01X870738Y155440D01*
G01X870851Y155360D01*
G01X870963Y155278D01*
G01X871074Y155194D01*
G01X871184Y155109D01*
G01X871292Y155022D01*
G01X871400Y154934D01*
G01X871506Y154844D01*
G01X871611Y154753D01*
G01X871714Y154661D01*
G01X871816Y154567D01*
G01X871917Y154472D01*
G01X872017Y154375D01*
G01X872115Y154277D01*
G01X872212Y154177D01*
G01X872308Y154076D01*
G01X872402Y153974D01*
G01X872494Y153871D01*
G01X872586Y153766D01*
G01X872675Y153660D01*
G01X872764Y153553D01*
G01X872851Y153444D01*
G01X872936Y153335D01*
G01X873020Y153224D01*
G01X873102Y153112D01*
G01X873182Y152999D01*
G01X873261Y152885D01*
G01X873339Y152769D01*
G01X873415Y152653D01*
G01X873489Y152536D01*
G01X873562Y152417D01*
G01X873632Y152298D01*
G01X873702Y152177D01*
G01X873769Y152056D01*
G01X873835Y151934D01*
G01X873899Y151811D01*
G01X873962Y151687D01*
G01X874023Y151562D01*
G01X874082Y151436D01*
G01X874139Y151310D01*
G01X874194Y151182D01*
G01X874248Y151054D01*
G01X874300Y150925D01*
G01X874350Y150796D01*
G01X874399Y150666D01*
G01X874445Y150535D01*
G01X874490Y150403D01*
G01X874533Y150271D01*
G01X874574Y150138D01*
G01X874613Y150005D01*
G01X874650Y149871D01*
G01X874686Y149737D01*
G01X874719Y149602D01*
G01X874751Y149467D01*
G01X874781Y149332D01*
G01X874809Y149195D01*
G01X874835Y149059D01*
G01X874859Y148922D01*
G01X874881Y148785D01*
G01X874902Y148648D01*
G01X874920Y148510D01*
G01X874937Y148372D01*
G01X874951Y148234D01*
G01X874964Y148096D01*
G01X874975Y147957D01*
G01X874984Y147819D01*
G01X874991Y147680D01*
G01X874996Y147541D01*
G01X874999Y147402D01*
G01X875000Y147264D01*
G01X874999Y147125D01*
G01X874997Y146986D01*
G01X874992Y146847D01*
G01X874985Y146708D01*
G01X874977Y146570D01*
G01X874966Y146431D01*
G01X874954Y146293D01*
G01X874940Y146155D01*
G01X874924Y146017D01*
G01X874906Y145879D01*
G01X874886Y145742D01*
G01X874864Y145604D01*
G01X874840Y145468D01*
G01X874814Y145331D01*
G01X874787Y145195D01*
G01X874757Y145059D01*
G01X874726Y144924D01*
G01X874692Y144789D01*
G01X874657Y144655D01*
G01X874620Y144521D01*
G01X874582Y144387D01*
G01X874541Y144255D01*
G01X874498Y144122D01*
G01X874454Y143991D01*
G01X874408Y143860D01*
G01X874360Y143730D01*
G01X874310Y143600D01*
G01X874258Y143471D01*
G01X874205Y143343D01*
G01X874150Y143215D01*
G01X874093Y143089D01*
G01X874034Y142963D01*
G01X873974Y142838D01*
G01X873912Y142713D01*
G01X873848Y142590D01*
G01X873782Y142468D01*
G01X873715Y142346D01*
G01X873646Y142226D01*
G01X873575Y142106D01*
G01X873503Y141987D01*
G01X873429Y141870D01*
G01X873354Y141753D01*
G01X873277Y141638D01*
G01X873198Y141523D01*
G01X873118Y141410D01*
G01X873036Y141298D01*
G01X872952Y141187D01*
G01X872867Y141077D01*
G01X872781Y140968D01*
G01X872693Y140861D01*
G01X872603Y140755D01*
G01X872512Y140650D01*
G01X872420Y140546D01*
G01X872326Y140444D01*
G01X872231Y140342D01*
G01X872134Y140243D01*
G01X872036Y140144D01*
G01X871937Y140047D01*
G01X871836Y139952D01*
G01X871734Y139857D01*
G01X871631Y139765D01*
G01X871526Y139673D01*
G01X871420Y139583D01*
G01X871313Y139495D01*
G01X871205Y139408D01*
G01X871095Y139322D01*
G01X870985Y139239D01*
G01X870873Y139156D01*
G01X870760Y139075D01*
G01X870646Y138996D01*
G01X870531Y138919D01*
G01X870414Y138843D01*
G01X870297Y138768D01*
G01X870179Y138695D01*
G01X870059Y138624D01*
G01X869939Y138555D01*
G01X869818Y138487D01*
G01X869696Y138421D01*
G01X869573Y138357D01*
G01X869449Y138294D01*
G01X869324Y138233D01*
G01X869198Y138174D01*
G01X869072Y138117D01*
G01X868945Y138061D01*
G01X868817Y138007D01*
G01X868688Y137955D01*
G01X868558Y137905D01*
G01X868428Y137856D01*
G01X868297Y137809D01*
G01X868166Y137764D01*
G01X868034Y137721D01*
G01X867901Y137680D01*
G01X867768Y137641D01*
G01X867634Y137603D01*
G01X867500Y137568D01*
G01X867366Y137534D01*
G01X867230Y137502D01*
G01X867095Y137472D01*
G01X866959Y137444D01*
G01X866822Y137417D01*
G01X866686Y137393D01*
G01X866549Y137371D01*
G01X866411Y137350D01*
G01X866274Y137331D01*
G01X866136Y137315D01*
G01X865998Y137300D01*
G01X865859Y137287D01*
G01X865721Y137276D01*
G01X865582Y137267D01*
G01X865444Y137260D01*
G01X865305Y137255D01*
G01X865166Y137251D01*
G01X865027Y137250D01*
G01X864888Y137251D01*
G01X864749Y137253D01*
G01X864610Y137258D01*
G01X864472Y137264D01*
G01X864333Y137272D01*
G01X864195Y137282D01*
G01X864056Y137295D01*
G01X863918Y137309D01*
G01X863780Y137325D01*
G01X863642Y137343D01*
G01X863505Y137362D01*
G01X863368Y137384D01*
G01X863231Y137408D01*
G01X863094Y137433D01*
G01X862958Y137461D01*
G01X862822Y137490D01*
G01X862687Y137521D01*
G01X862552Y137554D01*
G01X862418Y137589D01*
G01X862284Y137626D01*
G01X862150Y137665D01*
G01X862018Y137705D01*
G01X861885Y137747D01*
G01X861754Y137792D01*
G01X861623Y137838D01*
G01X861492Y137885D01*
G01X861362Y137935D01*
G01X861233Y137986D01*
G01X861105Y138040D01*
G01X860978Y138095D01*
G01X860851Y138151D01*
G01X860725Y138210D01*
G01X860600Y138270D01*
G01X860475Y138332D01*
G01X860352Y138396D01*
G01X860229Y138461D01*
G01X860108Y138528D01*
G01X859987Y138597D01*
G01X859868Y138668D01*
G01X859749Y138740D01*
G01X859631Y138813D01*
G01X859514Y138889D01*
G01X859399Y138966D01*
G01X859284Y139044D01*
G01X859171Y139125D01*
G01X859059Y139206D01*
G01X858948Y139290D01*
G01X858838Y139374D01*
G01X858729Y139461D01*
G01X858621Y139549D01*
G01X858515Y139638D01*
G01X858410Y139729D01*
G01X858306Y139821D01*
G01X858203Y139915D01*
G01X858102Y140010D01*
G01X858002Y140106D01*
G01X857904Y140204D01*
G01X857807Y140303D01*
G01X857711Y140404D01*
G01X857616Y140506D01*
G01X857523Y140609D01*
G01X857432Y140714D01*
G01X857342Y140819D01*
G01X857253Y140926D01*
G01X857166Y141034D01*
G01X857081Y141144D01*
G01X856997Y141254D01*
G01X856914Y141366D01*
G01X856833Y141479D01*
G01X856754Y141593D01*
G01X856676Y141708D01*
G01X856600Y141824D01*
G01X856525Y141941D01*
G01X856452Y142060D01*
G01X856381Y142179D01*
G01X856312Y142299D01*
G01X856244Y142420D01*
G01X856177Y142542D01*
G01X856113Y142665D01*
G01X856050Y142789D01*
G01X855989Y142914D01*
G01X855930Y143039D01*
G01X855872Y143166D01*
G01X855816Y143293D01*
G01X855762Y143421D01*
G01X855710Y143550D01*
G01X855659Y143679D01*
G01X855611Y143809D01*
G01X855564Y143940D01*
G01X855519Y144071D01*
G01X855475Y144203D01*
G01X855434Y144336D01*
G01X855395Y144469D01*
G01X855357Y144603D01*
G01X855321Y144737D01*
G01X855287Y144871D01*
G01X855255Y145006D01*
G01X855225Y145142D01*
G01X855196Y145278D01*
G01X855170Y145414D01*
G01X855145Y145551D01*
G01X855123Y145688D01*
G01X855102Y145825D01*
G01X855083Y145963D01*
G01X855066Y146101D01*
G01X855051Y146239D01*
G01X855038Y146377D01*
G01X855027Y146516D01*
G01X855018Y146654D01*
G01X855010Y146793D01*
G01X855005Y146932D01*
G01X855002Y147071D01*
G01X855000Y147209D01*
G01X855000Y147348D01*
G01X855003Y147487D01*
G01X855007Y147626D01*
G01X855013Y147765D01*
G01X855021Y147903D01*
G01X855031Y148042D01*
G01X855043Y148180D01*
G01X855057Y148319D01*
G01X855073Y148456D01*
G01X855091Y148594D01*
G01X855110Y148732D01*
G01X855132Y148869D01*
G01X855155Y149006D01*
G01X855181Y149142D01*
G01X855208Y149279D01*
G01X855237Y149414D01*
G01X855268Y149550D01*
G01X855301Y149685D01*
G01X855336Y149819D01*
G01X855372Y149953D01*
G01X855411Y150087D01*
G01X855451Y150220D01*
G01X855493Y150352D01*
G01X855537Y150484D01*
G01X855583Y150615D01*
G01X855631Y150745D01*
G01X855680Y150875D01*
G01X855731Y151004D01*
G01X855784Y151132D01*
G01X855839Y151260D01*
G01X855896Y151387D01*
G01X855954Y151513D01*
G01X856014Y151638D01*
G01X856076Y151763D01*
G01X856140Y151886D01*
G01X856205Y152009D01*
G01X856272Y152130D01*
G01X856340Y152251D01*
G01X856411Y152371D01*
G01X856483Y152490D01*
G01X856556Y152607D01*
G01X856631Y152724D01*
G01X856708Y152840D01*
G01X856787Y152955D01*
G01X856867Y153068D01*
G01X856948Y153180D01*
G01X857031Y153292D01*
G01X857116Y153402D01*
G01X857202Y153511D01*
G01X857290Y153618D01*
G01X857379Y153725D01*
G01X857470Y153830D01*
G01X857562Y153934D01*
G01X857656Y154037D01*
G01X857750Y154138D01*
G01X857847Y154238D01*
G01X857945Y154337D01*
G01X858044Y154434D01*
G01X858144Y154530D01*
G01X858246Y154624D01*
G01X858349Y154718D01*
G01X858453Y154809D01*
G01X858559Y154899D01*
G01X858666Y154988D01*
G01X858774Y155075D01*
G01X858883Y155161D01*
G01X858994Y155245D01*
G01X859105Y155328D01*
G01X859218Y155409D01*
G01X859332Y155488D01*
G01X859447Y155566D01*
G01X859563Y155643D01*
G01X859680Y155717D01*
G01X859798Y155791D01*
G01X859917Y155862D01*
G01X860037Y155932D01*
G01X860158Y156000D01*
G01X860280Y156066D01*
G01X860403Y156131D01*
G01X860527Y156194D01*
G01X860652Y156255D01*
G01X860777Y156315D01*
G01X860903Y156372D01*
G01X861031Y156428D01*
G01X861158Y156483D01*
G01X861287Y156535D01*
G01X861416Y156586D01*
G01X861546Y156635D01*
G01X861677Y156682D01*
G01X861808Y156727D01*
G01X861940Y156770D01*
G01X862073Y156812D01*
G01X862206Y156852D01*
G01X862339Y156890D01*
G01X862474Y156926D01*
G01X862608Y156960D01*
G01X862743Y156992D01*
G01X862879Y157022D01*
G01X863015Y157051D01*
G01X863151Y157078D01*
G01X863288Y157102D01*
G01X863425Y157125D01*
G01X863562Y157146D01*
G01X863700Y157165D01*
G01X863837Y157182D01*
G01X863976Y157197D01*
G01X864114Y157211D01*
G01X864252Y157222D01*
G01X864391Y157231D01*
G01X864529Y157239D01*
G01X864668Y157244D01*
G01X864807Y157248D01*
G01X864946Y157250D01*
G01X865000Y157250D01*
X865000Y157250D02*
X855000Y157250D01*
G01X2313750Y85000D02*
G01X2313750Y85000D01*
G01X2313746Y84722D01*
G01X2313735Y84445D01*
G01X2313715Y84168D01*
G01X2313688Y83891D01*
G01X2313654Y83616D01*
G01X2313611Y83341D01*
G01X2313562Y83068D01*
G01X2313504Y82796D01*
G01X2313439Y82526D01*
G01X2313367Y82258D01*
G01X2313287Y81992D01*
G01X2313200Y81728D01*
G01X2313105Y81467D01*
G01X2313003Y81208D01*
G01X2312894Y80953D01*
G01X2312778Y80700D01*
G01X2312656Y80451D01*
G01X2312526Y80206D01*
G01X2312389Y79964D01*
G01X2312246Y79726D01*
G01X2312096Y79492D01*
G01X2311940Y79262D01*
G01X2311778Y79037D01*
G01X2311609Y78816D01*
G01X2311434Y78600D01*
G01X2311253Y78389D01*
G01X2311067Y78184D01*
G01X2310875Y77983D01*
G01X2310677Y77788D01*
G01X2310474Y77598D01*
G01X2310266Y77414D01*
G01X2310053Y77236D01*
G01X2309835Y77064D01*
G01X2309612Y76898D01*
G01X2309385Y76739D01*
G01X2309153Y76585D01*
G01X2308917Y76438D01*
G01X2308677Y76298D01*
G01X2308434Y76165D01*
G01X2308187Y76038D01*
G01X2307936Y75918D01*
G01X2307682Y75806D01*
G01X2307425Y75700D01*
G01X2307166Y75601D01*
G01X2306903Y75510D01*
G01X2306638Y75426D01*
G01X2306371Y75350D01*
G01X2306102Y75281D01*
G01X2305832Y75219D01*
G01X2305559Y75165D01*
G01X2305285Y75119D01*
G01X2305010Y75080D01*
G01X2304734Y75049D01*
G01X2304457Y75025D01*
G01X2304180Y75009D01*
G01X2303902Y75001D01*
G01X2303625Y75001D01*
G01X2303347Y75008D01*
G01X2303070Y75023D01*
G01X2302793Y75046D01*
G01X2302517Y75076D01*
G01X2302242Y75114D01*
G01X2301968Y75160D01*
G01X2301695Y75213D01*
G01X2301424Y75274D01*
G01X2301155Y75343D01*
G01X2300887Y75418D01*
G01X2300622Y75502D01*
G01X2300360Y75592D01*
G01X2300100Y75690D01*
G01X2299843Y75795D01*
G01X2299589Y75907D01*
G01X2299338Y76026D01*
G01X2299090Y76152D01*
G01X2298846Y76285D01*
G01X2298606Y76425D01*
G01X2298370Y76571D01*
G01X2298138Y76723D01*
G01X2297910Y76882D01*
G01X2297687Y77048D01*
G01X2297468Y77219D01*
G01X2297255Y77397D01*
G01X2297046Y77580D01*
G01X2296842Y77769D01*
G01X2296644Y77964D01*
G01X2296452Y78164D01*
G01X2296265Y78369D01*
G01X2296083Y78580D01*
G01X2295908Y78795D01*
G01X2295739Y79015D01*
G01X2295575Y79240D01*
G01X2295419Y79469D01*
G01X2295268Y79703D01*
G01X2295124Y79941D01*
G01X2294987Y80182D01*
G01X2294857Y80427D01*
G01X2294733Y80676D01*
G01X2294617Y80928D01*
G01X2294507Y81183D01*
G01X2294405Y81442D01*
G01X2294309Y81703D01*
G01X2294221Y81966D01*
G01X2294141Y82232D01*
G01X2294068Y82500D01*
G01X2294002Y82770D01*
G01X2293944Y83041D01*
G01X2293893Y83314D01*
G01X2293850Y83589D01*
G01X2293815Y83864D01*
G01X2293787Y84141D01*
G01X2293767Y84418D01*
G01X2293755Y84695D01*
G01X2293750Y84973D01*
G01X2293750Y85000D01*
G01X2273750Y85000D02*
G01X2273750Y85000D01*
G01X2273754Y85278D01*
G01X2273765Y85555D01*
G01X2273785Y85832D01*
G01X2273812Y86109D01*
G01X2273846Y86384D01*
G01X2273889Y86659D01*
G01X2273938Y86932D01*
G01X2273996Y87204D01*
G01X2274061Y87474D01*
G01X2274133Y87742D01*
G01X2274213Y88008D01*
G01X2274300Y88272D01*
G01X2274395Y88533D01*
G01X2274497Y88792D01*
G01X2274606Y89047D01*
G01X2274722Y89300D01*
G01X2274844Y89549D01*
G01X2274974Y89794D01*
G01X2275111Y90036D01*
G01X2275254Y90274D01*
G01X2275404Y90508D01*
G01X2275560Y90738D01*
G01X2275722Y90963D01*
G01X2275891Y91184D01*
G01X2276066Y91400D01*
G01X2276247Y91611D01*
G01X2276433Y91816D01*
G01X2276625Y92017D01*
G01X2276823Y92212D01*
G01X2277026Y92402D01*
G01X2277234Y92586D01*
G01X2277447Y92764D01*
G01X2277665Y92936D01*
G01X2277888Y93102D01*
G01X2278115Y93261D01*
G01X2278347Y93415D01*
G01X2278583Y93562D01*
G01X2278823Y93702D01*
G01X2279066Y93835D01*
G01X2279313Y93962D01*
G01X2279564Y94082D01*
G01X2279818Y94194D01*
G01X2280075Y94300D01*
G01X2280334Y94399D01*
G01X2280597Y94490D01*
G01X2280862Y94574D01*
G01X2281129Y94650D01*
G01X2281398Y94719D01*
G01X2281668Y94781D01*
G01X2281941Y94835D01*
G01X2282215Y94881D01*
G01X2282490Y94920D01*
G01X2282766Y94951D01*
G01X2283043Y94975D01*
G01X2283320Y94991D01*
G01X2283598Y94999D01*
G01X2283875Y94999D01*
G01X2284153Y94992D01*
G01X2284430Y94977D01*
G01X2284707Y94954D01*
G01X2284983Y94924D01*
G01X2285258Y94886D01*
G01X2285532Y94840D01*
G01X2285805Y94787D01*
G01X2286076Y94726D01*
G01X2286345Y94657D01*
G01X2286613Y94582D01*
G01X2286878Y94498D01*
G01X2287140Y94408D01*
G01X2287400Y94310D01*
G01X2287657Y94205D01*
G01X2287911Y94093D01*
G01X2288162Y93974D01*
G01X2288410Y93848D01*
G01X2288654Y93715D01*
G01X2288894Y93575D01*
G01X2289130Y93429D01*
G01X2289362Y93277D01*
G01X2289590Y93118D01*
G01X2289813Y92952D01*
G01X2290032Y92781D01*
G01X2290245Y92603D01*
G01X2290454Y92420D01*
G01X2290658Y92231D01*
G01X2290856Y92036D01*
G01X2291048Y91836D01*
G01X2291235Y91631D01*
G01X2291417Y91420D01*
G01X2291592Y91205D01*
G01X2291761Y90985D01*
G01X2291925Y90760D01*
G01X2292081Y90531D01*
G01X2292232Y90297D01*
G01X2292376Y90059D01*
G01X2292513Y89818D01*
G01X2292643Y89573D01*
G01X2292767Y89324D01*
G01X2292883Y89072D01*
G01X2292993Y88817D01*
G01X2293095Y88558D01*
G01X2293191Y88297D01*
G01X2293279Y88034D01*
G01X2293359Y87768D01*
G01X2293432Y87500D01*
G01X2293498Y87230D01*
G01X2293556Y86959D01*
G01X2293607Y86686D01*
G01X2293650Y86411D01*
G01X2293685Y86136D01*
G01X2293713Y85859D01*
G01X2293733Y85582D01*
G01X2293745Y85305D01*
G01X2293750Y85027D01*
G01X2293750Y85000D01*
X2313750Y85000D02*
X2313750Y95000D01*
X2273750Y85000D02*
X2273750Y75000D01*
G01X2293750Y113000D02*
G01X2293750Y113000D01*
G01X2293746Y112722D01*
G01X2293735Y112445D01*
G01X2293715Y112168D01*
G01X2293688Y111891D01*
G01X2293654Y111616D01*
G01X2293611Y111341D01*
G01X2293562Y111068D01*
G01X2293504Y110796D01*
G01X2293439Y110526D01*
G01X2293367Y110258D01*
G01X2293287Y109992D01*
G01X2293200Y109728D01*
G01X2293105Y109467D01*
G01X2293003Y109208D01*
G01X2292894Y108953D01*
G01X2292778Y108700D01*
G01X2292656Y108451D01*
G01X2292526Y108206D01*
G01X2292389Y107964D01*
G01X2292246Y107726D01*
G01X2292096Y107492D01*
G01X2291940Y107262D01*
G01X2291778Y107037D01*
G01X2291609Y106816D01*
G01X2291434Y106600D01*
G01X2291253Y106389D01*
G01X2291067Y106184D01*
G01X2290875Y105983D01*
G01X2290677Y105788D01*
G01X2290474Y105598D01*
G01X2290266Y105414D01*
G01X2290053Y105236D01*
G01X2289835Y105064D01*
G01X2289612Y104898D01*
G01X2289385Y104739D01*
G01X2289153Y104585D01*
G01X2288917Y104438D01*
G01X2288677Y104298D01*
G01X2288434Y104165D01*
G01X2288187Y104038D01*
G01X2287936Y103918D01*
G01X2287682Y103806D01*
G01X2287425Y103700D01*
G01X2287166Y103601D01*
G01X2286903Y103510D01*
G01X2286638Y103426D01*
G01X2286371Y103350D01*
G01X2286102Y103281D01*
G01X2285832Y103219D01*
G01X2285559Y103165D01*
G01X2285285Y103119D01*
G01X2285010Y103080D01*
G01X2284734Y103049D01*
G01X2284457Y103025D01*
G01X2284180Y103009D01*
G01X2283902Y103001D01*
G01X2283625Y103001D01*
G01X2283347Y103008D01*
G01X2283070Y103023D01*
G01X2282793Y103046D01*
G01X2282517Y103076D01*
G01X2282242Y103114D01*
G01X2281968Y103160D01*
G01X2281695Y103213D01*
G01X2281424Y103274D01*
G01X2281155Y103343D01*
G01X2280887Y103418D01*
G01X2280622Y103502D01*
G01X2280360Y103592D01*
G01X2280100Y103690D01*
G01X2279843Y103795D01*
G01X2279589Y103907D01*
G01X2279338Y104026D01*
G01X2279090Y104152D01*
G01X2278846Y104285D01*
G01X2278606Y104425D01*
G01X2278370Y104571D01*
G01X2278138Y104723D01*
G01X2277910Y104882D01*
G01X2277687Y105048D01*
G01X2277468Y105219D01*
G01X2277255Y105397D01*
G01X2277046Y105580D01*
G01X2276842Y105769D01*
G01X2276644Y105964D01*
G01X2276452Y106164D01*
G01X2276265Y106369D01*
G01X2276083Y106580D01*
G01X2275908Y106795D01*
G01X2275739Y107015D01*
G01X2275575Y107240D01*
G01X2275419Y107469D01*
G01X2275268Y107703D01*
G01X2275124Y107941D01*
G01X2274987Y108182D01*
G01X2274857Y108427D01*
G01X2274733Y108676D01*
G01X2274617Y108928D01*
G01X2274507Y109183D01*
G01X2274405Y109442D01*
G01X2274309Y109703D01*
G01X2274221Y109966D01*
G01X2274141Y110232D01*
G01X2274068Y110500D01*
G01X2274002Y110770D01*
G01X2273944Y111041D01*
G01X2273893Y111314D01*
G01X2273850Y111589D01*
G01X2273815Y111864D01*
G01X2273787Y112141D01*
G01X2273767Y112418D01*
G01X2273755Y112695D01*
G01X2273750Y112973D01*
G01X2273750Y113000D01*
X2293750Y113000D02*
X2293750Y118000D01*
X2273750Y113000D02*
X2273750Y118000D01*
X2291250Y141000D02*
X2273750Y151000D01*
X2303750Y131000D02*
X2273750Y131000D01*
X2293750Y146000D02*
X2286250Y131000D01*
G01X1526250Y147250D02*
G01X1526250Y147250D01*
G01X1526235Y146695D01*
G01X1526188Y146141D01*
G01X1526111Y145591D01*
G01X1526004Y145046D01*
G01X1525867Y144508D01*
G01X1525700Y143978D01*
G01X1525503Y143458D01*
G01X1525278Y142950D01*
G01X1525026Y142456D01*
G01X1524746Y141976D01*
G01X1524440Y141512D01*
G01X1524109Y141066D01*
G01X1523753Y140639D01*
G01X1523375Y140233D01*
G01X1522974Y139848D01*
G01X1522553Y139486D01*
G01X1522112Y139148D01*
G01X1521653Y138835D01*
G01X1521177Y138548D01*
G01X1520687Y138288D01*
G01X1520182Y138056D01*
G01X1519666Y137851D01*
G01X1519138Y137676D01*
G01X1518602Y137531D01*
G01X1518059Y137415D01*
G01X1517510Y137330D01*
G01X1516957Y137275D01*
G01X1516402Y137251D01*
G01X1516250Y137250D01*
G01X1496250Y137250D02*
G01X1496250Y137250D01*
G01X1495695Y137265D01*
G01X1495141Y137312D01*
G01X1494591Y137389D01*
G01X1494046Y137496D01*
G01X1493508Y137633D01*
G01X1492978Y137800D01*
G01X1492458Y137997D01*
G01X1491950Y138222D01*
G01X1491456Y138474D01*
G01X1490976Y138754D01*
G01X1490512Y139060D01*
G01X1490066Y139391D01*
G01X1489639Y139747D01*
G01X1489233Y140125D01*
G01X1488848Y140526D01*
G01X1488486Y140947D01*
G01X1488148Y141388D01*
G01X1487835Y141847D01*
G01X1487548Y142323D01*
G01X1487288Y142813D01*
G01X1487056Y143318D01*
G01X1486851Y143834D01*
G01X1486676Y144362D01*
G01X1486531Y144898D01*
G01X1486415Y145441D01*
G01X1486330Y145990D01*
G01X1486275Y146543D01*
G01X1486251Y147098D01*
G01X1486250Y147250D01*
X1516250Y137250D02*
X1496250Y137250D01*
X1526250Y147250D02*
X1526250Y157250D01*
X1486250Y147250D02*
X1486250Y157250D01*
X1486250Y157250D02*
X1506250Y157250D01*
X1506250Y157250D02*
X1506250Y147250D01*
G01X1913750Y85000D02*
G01X1913750Y85000D01*
G01X1913735Y84445D01*
G01X1913688Y83891D01*
G01X1913611Y83341D01*
G01X1913504Y82796D01*
G01X1913367Y82258D01*
G01X1913200Y81728D01*
G01X1913003Y81208D01*
G01X1912778Y80700D01*
G01X1912526Y80206D01*
G01X1912246Y79726D01*
G01X1911940Y79262D01*
G01X1911609Y78816D01*
G01X1911253Y78389D01*
G01X1910875Y77983D01*
G01X1910474Y77598D01*
G01X1910053Y77236D01*
G01X1909612Y76898D01*
G01X1909153Y76585D01*
G01X1908677Y76298D01*
G01X1908187Y76038D01*
G01X1907682Y75806D01*
G01X1907166Y75601D01*
G01X1906638Y75426D01*
G01X1906102Y75281D01*
G01X1905559Y75165D01*
G01X1905010Y75080D01*
G01X1904457Y75025D01*
G01X1903902Y75001D01*
G01X1903750Y75000D01*
G01X1883750Y75000D02*
G01X1883750Y75000D01*
G01X1883195Y75015D01*
G01X1882641Y75062D01*
G01X1882091Y75139D01*
G01X1881546Y75246D01*
G01X1881008Y75383D01*
G01X1880478Y75550D01*
G01X1879958Y75747D01*
G01X1879450Y75972D01*
G01X1878956Y76224D01*
G01X1878476Y76504D01*
G01X1878012Y76810D01*
G01X1877566Y77141D01*
G01X1877139Y77497D01*
G01X1876733Y77875D01*
G01X1876348Y78276D01*
G01X1875986Y78697D01*
G01X1875648Y79138D01*
G01X1875335Y79597D01*
G01X1875048Y80073D01*
G01X1874788Y80563D01*
G01X1874556Y81068D01*
G01X1874351Y81584D01*
G01X1874176Y82112D01*
G01X1874031Y82648D01*
G01X1873915Y83191D01*
G01X1873830Y83740D01*
G01X1873775Y84293D01*
G01X1873751Y84848D01*
G01X1873750Y85000D01*
X1903750Y75000D02*
X1883750Y75000D01*
X1913750Y85000D02*
X1913750Y95000D01*
X1873750Y85000D02*
X1873750Y95000D01*
X1873750Y95000D02*
X1893750Y95000D01*
X1893750Y95000D02*
X1893750Y85000D01*
X1893750Y108000D02*
X1873750Y108000D01*
G01X1888750Y118000D02*
G01X1888750Y118000D01*
G01X1888889Y117998D01*
G01X1889028Y117992D01*
G01X1889166Y117983D01*
G01X1889304Y117969D01*
G01X1889442Y117952D01*
G01X1889579Y117931D01*
G01X1889716Y117906D01*
G01X1889852Y117877D01*
G01X1889987Y117845D01*
G01X1890121Y117808D01*
G01X1890254Y117768D01*
G01X1890386Y117725D01*
G01X1890517Y117678D01*
G01X1890646Y117627D01*
G01X1890774Y117572D01*
G01X1890900Y117514D01*
G01X1891024Y117453D01*
G01X1891147Y117388D01*
G01X1891268Y117320D01*
G01X1891387Y117248D01*
G01X1891504Y117173D01*
G01X1891619Y117095D01*
G01X1891732Y117014D01*
G01X1891842Y116929D01*
G01X1891950Y116842D01*
G01X1892055Y116752D01*
G01X1892158Y116658D01*
G01X1892258Y116562D01*
G01X1892356Y116464D01*
G01X1892451Y116362D01*
G01X1892543Y116258D01*
G01X1892632Y116151D01*
G01X1892718Y116042D01*
G01X1892801Y115931D01*
G01X1892881Y115817D01*
G01X1892957Y115702D01*
G01X1893031Y115584D01*
G01X1893101Y115464D01*
G01X1893168Y115342D01*
G01X1893231Y115218D01*
G01X1893291Y115093D01*
G01X1893347Y114966D01*
G01X1893400Y114838D01*
G01X1893449Y114708D01*
G01X1893495Y114577D01*
G01X1893537Y114444D01*
G01X1893575Y114311D01*
G01X1893610Y114176D01*
G01X1893640Y114041D01*
G01X1893668Y113905D01*
G01X1893691Y113768D01*
G01X1893710Y113630D01*
G01X1893726Y113492D01*
G01X1893737Y113354D01*
G01X1893745Y113215D01*
G01X1893749Y113076D01*
G01X1893750Y113000D01*
G01X1893748Y112861D01*
G01X1893742Y112722D01*
G01X1893733Y112584D01*
G01X1893719Y112446D01*
G01X1893702Y112308D01*
G01X1893681Y112171D01*
G01X1893656Y112034D01*
G01X1893627Y111898D01*
G01X1893595Y111763D01*
G01X1893558Y111629D01*
G01X1893518Y111496D01*
G01X1893475Y111364D01*
G01X1893428Y111233D01*
G01X1893377Y111104D01*
G01X1893322Y110976D01*
G01X1893264Y110850D01*
G01X1893203Y110726D01*
G01X1893138Y110603D01*
G01X1893070Y110482D01*
G01X1892998Y110363D01*
G01X1892923Y110246D01*
G01X1892845Y110131D01*
G01X1892764Y110018D01*
G01X1892679Y109908D01*
G01X1892592Y109800D01*
G01X1892502Y109695D01*
G01X1892408Y109592D01*
G01X1892312Y109492D01*
G01X1892214Y109394D01*
G01X1892112Y109299D01*
G01X1892008Y109207D01*
G01X1891901Y109118D01*
G01X1891792Y109032D01*
G01X1891681Y108949D01*
G01X1891567Y108869D01*
G01X1891452Y108793D01*
G01X1891334Y108719D01*
G01X1891214Y108649D01*
G01X1891092Y108582D01*
G01X1890968Y108519D01*
G01X1890843Y108459D01*
G01X1890716Y108403D01*
G01X1890588Y108350D01*
G01X1890458Y108301D01*
G01X1890327Y108255D01*
G01X1890194Y108213D01*
G01X1890061Y108175D01*
G01X1889926Y108140D01*
G01X1889791Y108110D01*
G01X1889655Y108082D01*
G01X1889518Y108059D01*
G01X1889380Y108040D01*
G01X1889242Y108024D01*
G01X1889104Y108013D01*
G01X1888965Y108005D01*
G01X1888826Y108001D01*
G01X1888750Y108000D01*
X1888750Y118000D02*
X1873750Y118000D01*
G01X1893750Y141000D02*
G01X1893750Y141000D01*
G01X1893746Y140722D01*
G01X1893735Y140445D01*
G01X1893715Y140168D01*
G01X1893688Y139891D01*
G01X1893654Y139616D01*
G01X1893611Y139341D01*
G01X1893562Y139068D01*
G01X1893504Y138796D01*
G01X1893439Y138526D01*
G01X1893367Y138258D01*
G01X1893287Y137992D01*
G01X1893200Y137728D01*
G01X1893105Y137467D01*
G01X1893003Y137208D01*
G01X1892894Y136953D01*
G01X1892778Y136700D01*
G01X1892656Y136451D01*
G01X1892526Y136206D01*
G01X1892389Y135964D01*
G01X1892246Y135726D01*
G01X1892096Y135492D01*
G01X1891940Y135262D01*
G01X1891778Y135037D01*
G01X1891609Y134816D01*
G01X1891434Y134600D01*
G01X1891253Y134389D01*
G01X1891067Y134184D01*
G01X1890875Y133983D01*
G01X1890677Y133788D01*
G01X1890474Y133598D01*
G01X1890266Y133414D01*
G01X1890053Y133236D01*
G01X1889835Y133064D01*
G01X1889612Y132898D01*
G01X1889385Y132739D01*
G01X1889153Y132585D01*
G01X1888917Y132438D01*
G01X1888677Y132298D01*
G01X1888434Y132165D01*
G01X1888187Y132038D01*
G01X1887936Y131918D01*
G01X1887682Y131806D01*
G01X1887425Y131700D01*
G01X1887166Y131601D01*
G01X1886903Y131510D01*
G01X1886638Y131426D01*
G01X1886371Y131350D01*
G01X1886102Y131281D01*
G01X1885832Y131219D01*
G01X1885559Y131165D01*
G01X1885285Y131119D01*
G01X1885010Y131080D01*
G01X1884734Y131049D01*
G01X1884457Y131025D01*
G01X1884180Y131009D01*
G01X1883902Y131001D01*
G01X1883625Y131001D01*
G01X1883347Y131008D01*
G01X1883070Y131023D01*
G01X1882793Y131046D01*
G01X1882517Y131076D01*
G01X1882242Y131114D01*
G01X1881968Y131160D01*
G01X1881695Y131213D01*
G01X1881424Y131274D01*
G01X1881155Y131343D01*
G01X1880887Y131418D01*
G01X1880622Y131502D01*
G01X1880360Y131592D01*
G01X1880100Y131690D01*
G01X1879843Y131795D01*
G01X1879589Y131907D01*
G01X1879338Y132026D01*
G01X1879090Y132152D01*
G01X1878846Y132285D01*
G01X1878606Y132425D01*
G01X1878370Y132571D01*
G01X1878138Y132723D01*
G01X1877910Y132882D01*
G01X1877687Y133048D01*
G01X1877468Y133219D01*
G01X1877255Y133397D01*
G01X1877046Y133580D01*
G01X1876842Y133769D01*
G01X1876644Y133964D01*
G01X1876452Y134164D01*
G01X1876265Y134369D01*
G01X1876083Y134580D01*
G01X1875908Y134795D01*
G01X1875739Y135015D01*
G01X1875575Y135240D01*
G01X1875419Y135469D01*
G01X1875268Y135703D01*
G01X1875124Y135941D01*
G01X1874987Y136182D01*
G01X1874857Y136427D01*
G01X1874733Y136676D01*
G01X1874617Y136928D01*
G01X1874507Y137183D01*
G01X1874405Y137442D01*
G01X1874309Y137703D01*
G01X1874221Y137966D01*
G01X1874141Y138232D01*
G01X1874068Y138500D01*
G01X1874002Y138770D01*
G01X1873944Y139041D01*
G01X1873893Y139314D01*
G01X1873850Y139589D01*
G01X1873815Y139864D01*
G01X1873787Y140141D01*
G01X1873767Y140418D01*
G01X1873755Y140695D01*
G01X1873750Y140973D01*
G01X1873750Y141000D01*
X1893750Y141000D02*
X1893750Y151000D01*
X1873750Y141000D02*
X1873750Y151000D01*
X1913750Y151000D02*
X1873750Y151000D01*
G01X595000Y91250D02*
G01X595000Y91250D01*
G01X594985Y90695D01*
G01X594938Y90141D01*
G01X594861Y89591D01*
G01X594754Y89046D01*
G01X594617Y88508D01*
G01X594450Y87978D01*
G01X594253Y87458D01*
G01X594028Y86950D01*
G01X593776Y86456D01*
G01X593496Y85976D01*
G01X593190Y85512D01*
G01X592859Y85066D01*
G01X592503Y84639D01*
G01X592125Y84233D01*
G01X591724Y83848D01*
G01X591303Y83486D01*
G01X590862Y83148D01*
G01X590403Y82835D01*
G01X589927Y82548D01*
G01X589437Y82288D01*
G01X588932Y82056D01*
G01X588416Y81851D01*
G01X587888Y81676D01*
G01X587352Y81531D01*
G01X586809Y81415D01*
G01X586260Y81330D01*
G01X585707Y81275D01*
G01X585152Y81251D01*
G01X585000Y81250D01*
G01X565000Y81250D02*
G01X565000Y81250D01*
G01X564445Y81265D01*
G01X563891Y81312D01*
G01X563341Y81389D01*
G01X562796Y81496D01*
G01X562258Y81633D01*
G01X561728Y81800D01*
G01X561208Y81997D01*
G01X560700Y82222D01*
G01X560206Y82474D01*
G01X559726Y82754D01*
G01X559262Y83060D01*
G01X558816Y83391D01*
G01X558389Y83747D01*
G01X557983Y84125D01*
G01X557598Y84526D01*
G01X557236Y84947D01*
G01X556898Y85388D01*
G01X556585Y85847D01*
G01X556298Y86323D01*
G01X556038Y86813D01*
G01X555806Y87318D01*
G01X555601Y87834D01*
G01X555426Y88362D01*
G01X555281Y88898D01*
G01X555165Y89441D01*
G01X555080Y89990D01*
G01X555025Y90543D01*
G01X555001Y91098D01*
G01X555000Y91250D01*
X585000Y81250D02*
X565000Y81250D01*
X595000Y91250D02*
X595000Y101250D01*
X555000Y91250D02*
X555000Y101250D01*
X555000Y101250D02*
X575000Y101250D01*
X575000Y101250D02*
X575000Y91250D01*
X575000Y114250D02*
X555000Y114250D01*
G01X570000Y124250D02*
G01X570000Y124250D01*
G01X570139Y124248D01*
G01X570278Y124242D01*
G01X570416Y124233D01*
G01X570554Y124219D01*
G01X570692Y124202D01*
G01X570829Y124181D01*
G01X570966Y124156D01*
G01X571102Y124127D01*
G01X571237Y124095D01*
G01X571371Y124058D01*
G01X571504Y124018D01*
G01X571636Y123975D01*
G01X571767Y123928D01*
G01X571896Y123877D01*
G01X572024Y123822D01*
G01X572150Y123764D01*
G01X572274Y123703D01*
G01X572397Y123638D01*
G01X572518Y123570D01*
G01X572637Y123498D01*
G01X572754Y123423D01*
G01X572869Y123345D01*
G01X572982Y123264D01*
G01X573092Y123179D01*
G01X573200Y123092D01*
G01X573305Y123002D01*
G01X573408Y122908D01*
G01X573508Y122812D01*
G01X573606Y122714D01*
G01X573701Y122612D01*
G01X573793Y122508D01*
G01X573882Y122401D01*
G01X573968Y122292D01*
G01X574051Y122181D01*
G01X574131Y122067D01*
G01X574207Y121952D01*
G01X574281Y121834D01*
G01X574351Y121714D01*
G01X574418Y121592D01*
G01X574481Y121468D01*
G01X574541Y121343D01*
G01X574597Y121216D01*
G01X574650Y121088D01*
G01X574699Y120958D01*
G01X574745Y120827D01*
G01X574787Y120694D01*
G01X574825Y120561D01*
G01X574860Y120426D01*
G01X574890Y120291D01*
G01X574918Y120155D01*
G01X574941Y120018D01*
G01X574960Y119880D01*
G01X574976Y119742D01*
G01X574987Y119604D01*
G01X574995Y119465D01*
G01X574999Y119326D01*
G01X575000Y119250D01*
G01X574998Y119111D01*
G01X574992Y118972D01*
G01X574983Y118834D01*
G01X574969Y118696D01*
G01X574952Y118558D01*
G01X574931Y118421D01*
G01X574906Y118284D01*
G01X574877Y118148D01*
G01X574845Y118013D01*
G01X574808Y117879D01*
G01X574768Y117746D01*
G01X574725Y117614D01*
G01X574678Y117483D01*
G01X574627Y117354D01*
G01X574572Y117226D01*
G01X574514Y117100D01*
G01X574453Y116976D01*
G01X574388Y116853D01*
G01X574320Y116732D01*
G01X574248Y116613D01*
G01X574173Y116496D01*
G01X574095Y116381D01*
G01X574014Y116268D01*
G01X573929Y116158D01*
G01X573842Y116050D01*
G01X573752Y115945D01*
G01X573658Y115842D01*
G01X573562Y115742D01*
G01X573464Y115644D01*
G01X573362Y115549D01*
G01X573258Y115457D01*
G01X573151Y115368D01*
G01X573042Y115282D01*
G01X572931Y115199D01*
G01X572817Y115119D01*
G01X572702Y115043D01*
G01X572584Y114969D01*
G01X572464Y114899D01*
G01X572342Y114832D01*
G01X572218Y114769D01*
G01X572093Y114709D01*
G01X571966Y114653D01*
G01X571838Y114600D01*
G01X571708Y114551D01*
G01X571577Y114505D01*
G01X571444Y114463D01*
G01X571311Y114425D01*
G01X571176Y114390D01*
G01X571041Y114360D01*
G01X570905Y114332D01*
G01X570768Y114309D01*
G01X570630Y114290D01*
G01X570492Y114274D01*
G01X570354Y114263D01*
G01X570215Y114255D01*
G01X570076Y114251D01*
G01X570000Y114250D01*
X570000Y124250D02*
X555000Y124250D01*
G01X575000Y147250D02*
G01X575000Y147250D01*
G01X574996Y146972D01*
G01X574985Y146695D01*
G01X574965Y146418D01*
G01X574938Y146141D01*
G01X574904Y145866D01*
G01X574861Y145591D01*
G01X574812Y145318D01*
G01X574754Y145046D01*
G01X574689Y144776D01*
G01X574617Y144508D01*
G01X574537Y144242D01*
G01X574450Y143978D01*
G01X574355Y143717D01*
G01X574253Y143458D01*
G01X574144Y143203D01*
G01X574028Y142950D01*
G01X573906Y142701D01*
G01X573776Y142456D01*
G01X573639Y142214D01*
G01X573496Y141976D01*
G01X573346Y141742D01*
G01X573190Y141512D01*
G01X573028Y141287D01*
G01X572859Y141066D01*
G01X572684Y140850D01*
G01X572503Y140639D01*
G01X572317Y140434D01*
G01X572125Y140233D01*
G01X571927Y140038D01*
G01X571724Y139848D01*
G01X571516Y139664D01*
G01X571303Y139486D01*
G01X571085Y139314D01*
G01X570862Y139148D01*
G01X570635Y138989D01*
G01X570403Y138835D01*
G01X570167Y138688D01*
G01X569927Y138548D01*
G01X569684Y138415D01*
G01X569437Y138288D01*
G01X569186Y138168D01*
G01X568932Y138056D01*
G01X568675Y137950D01*
G01X568416Y137851D01*
G01X568153Y137760D01*
G01X567888Y137676D01*
G01X567621Y137600D01*
G01X567352Y137531D01*
G01X567082Y137469D01*
G01X566809Y137415D01*
G01X566535Y137369D01*
G01X566260Y137330D01*
G01X565984Y137299D01*
G01X565707Y137275D01*
G01X565430Y137259D01*
G01X565152Y137251D01*
G01X564875Y137251D01*
G01X564597Y137258D01*
G01X564320Y137273D01*
G01X564043Y137296D01*
G01X563767Y137326D01*
G01X563492Y137364D01*
G01X563218Y137410D01*
G01X562945Y137463D01*
G01X562674Y137524D01*
G01X562405Y137593D01*
G01X562137Y137668D01*
G01X561872Y137752D01*
G01X561610Y137842D01*
G01X561350Y137940D01*
G01X561093Y138045D01*
G01X560839Y138157D01*
G01X560588Y138276D01*
G01X560340Y138402D01*
G01X560096Y138535D01*
G01X559856Y138675D01*
G01X559620Y138821D01*
G01X559388Y138973D01*
G01X559160Y139132D01*
G01X558937Y139298D01*
G01X558718Y139469D01*
G01X558505Y139647D01*
G01X558296Y139830D01*
G01X558092Y140019D01*
G01X557894Y140214D01*
G01X557702Y140414D01*
G01X557515Y140619D01*
G01X557333Y140830D01*
G01X557158Y141045D01*
G01X556989Y141265D01*
G01X556825Y141490D01*
G01X556669Y141719D01*
G01X556518Y141953D01*
G01X556374Y142191D01*
G01X556237Y142432D01*
G01X556107Y142677D01*
G01X555983Y142926D01*
G01X555867Y143178D01*
G01X555757Y143433D01*
G01X555655Y143692D01*
G01X555559Y143953D01*
G01X555471Y144216D01*
G01X555391Y144482D01*
G01X555318Y144750D01*
G01X555252Y145020D01*
G01X555194Y145291D01*
G01X555143Y145564D01*
G01X555100Y145839D01*
G01X555065Y146114D01*
G01X555037Y146391D01*
G01X555017Y146668D01*
G01X555005Y146945D01*
G01X555000Y147223D01*
G01X555000Y147250D01*
X575000Y147250D02*
X575000Y157250D01*
X555000Y147250D02*
X555000Y157250D01*
X595000Y157250D02*
X555000Y157250D01*
X2013750Y75000D02*
X1973750Y85000D01*
X1973750Y85000D02*
X2013750Y95000D01*
G01X1993750Y113000D02*
G01X1993750Y113000D01*
G01X1993746Y112722D01*
G01X1993735Y112445D01*
G01X1993715Y112168D01*
G01X1993688Y111891D01*
G01X1993654Y111616D01*
G01X1993611Y111341D01*
G01X1993562Y111068D01*
G01X1993504Y110796D01*
G01X1993439Y110526D01*
G01X1993367Y110258D01*
G01X1993287Y109992D01*
G01X1993200Y109728D01*
G01X1993105Y109467D01*
G01X1993003Y109208D01*
G01X1992894Y108953D01*
G01X1992778Y108700D01*
G01X1992656Y108451D01*
G01X1992526Y108206D01*
G01X1992389Y107964D01*
G01X1992246Y107726D01*
G01X1992096Y107492D01*
G01X1991940Y107262D01*
G01X1991778Y107037D01*
G01X1991609Y106816D01*
G01X1991434Y106600D01*
G01X1991253Y106389D01*
G01X1991067Y106184D01*
G01X1990875Y105983D01*
G01X1990677Y105788D01*
G01X1990474Y105598D01*
G01X1990266Y105414D01*
G01X1990053Y105236D01*
G01X1989835Y105064D01*
G01X1989612Y104898D01*
G01X1989385Y104739D01*
G01X1989153Y104585D01*
G01X1988917Y104438D01*
G01X1988677Y104298D01*
G01X1988434Y104165D01*
G01X1988187Y104038D01*
G01X1987936Y103918D01*
G01X1987682Y103806D01*
G01X1987425Y103700D01*
G01X1987166Y103601D01*
G01X1986903Y103510D01*
G01X1986638Y103426D01*
G01X1986371Y103350D01*
G01X1986102Y103281D01*
G01X1985832Y103219D01*
G01X1985559Y103165D01*
G01X1985285Y103119D01*
G01X1985010Y103080D01*
G01X1984734Y103049D01*
G01X1984457Y103025D01*
G01X1984180Y103009D01*
G01X1983902Y103001D01*
G01X1983625Y103001D01*
G01X1983347Y103008D01*
G01X1983070Y103023D01*
G01X1982793Y103046D01*
G01X1982517Y103076D01*
G01X1982242Y103114D01*
G01X1981968Y103160D01*
G01X1981695Y103213D01*
G01X1981424Y103274D01*
G01X1981155Y103343D01*
G01X1980887Y103418D01*
G01X1980622Y103502D01*
G01X1980360Y103592D01*
G01X1980100Y103690D01*
G01X1979843Y103795D01*
G01X1979589Y103907D01*
G01X1979338Y104026D01*
G01X1979090Y104152D01*
G01X1978846Y104285D01*
G01X1978606Y104425D01*
G01X1978370Y104571D01*
G01X1978138Y104723D01*
G01X1977910Y104882D01*
G01X1977687Y105048D01*
G01X1977468Y105219D01*
G01X1977255Y105397D01*
G01X1977046Y105580D01*
G01X1976842Y105769D01*
G01X1976644Y105964D01*
G01X1976452Y106164D01*
G01X1976265Y106369D01*
G01X1976083Y106580D01*
G01X1975908Y106795D01*
G01X1975739Y107015D01*
G01X1975575Y107240D01*
G01X1975419Y107469D01*
G01X1975268Y107703D01*
G01X1975124Y107941D01*
G01X1974987Y108182D01*
G01X1974857Y108427D01*
G01X1974733Y108676D01*
G01X1974617Y108928D01*
G01X1974507Y109183D01*
G01X1974405Y109442D01*
G01X1974309Y109703D01*
G01X1974221Y109966D01*
G01X1974141Y110232D01*
G01X1974068Y110500D01*
G01X1974002Y110770D01*
G01X1973944Y111041D01*
G01X1973893Y111314D01*
G01X1973850Y111589D01*
G01X1973815Y111864D01*
G01X1973787Y112141D01*
G01X1973767Y112418D01*
G01X1973755Y112695D01*
G01X1973750Y112973D01*
G01X1973750Y113000D01*
X1993750Y113000D02*
X1993750Y118000D01*
X1973750Y113000D02*
X1973750Y118000D01*
G01X1993750Y141000D02*
G01X1993750Y141000D01*
G01X1993746Y140722D01*
G01X1993735Y140445D01*
G01X1993715Y140168D01*
G01X1993688Y139891D01*
G01X1993654Y139616D01*
G01X1993611Y139341D01*
G01X1993562Y139068D01*
G01X1993504Y138796D01*
G01X1993439Y138526D01*
G01X1993367Y138258D01*
G01X1993287Y137992D01*
G01X1993200Y137728D01*
G01X1993105Y137467D01*
G01X1993003Y137208D01*
G01X1992894Y136953D01*
G01X1992778Y136700D01*
G01X1992656Y136451D01*
G01X1992526Y136206D01*
G01X1992389Y135964D01*
G01X1992246Y135726D01*
G01X1992096Y135492D01*
G01X1991940Y135262D01*
G01X1991778Y135037D01*
G01X1991609Y134816D01*
G01X1991434Y134600D01*
G01X1991253Y134389D01*
G01X1991067Y134184D01*
G01X1990875Y133983D01*
G01X1990677Y133788D01*
G01X1990474Y133598D01*
G01X1990266Y133414D01*
G01X1990053Y133236D01*
G01X1989835Y133064D01*
G01X1989612Y132898D01*
G01X1989385Y132739D01*
G01X1989153Y132585D01*
G01X1988917Y132438D01*
G01X1988677Y132298D01*
G01X1988434Y132165D01*
G01X1988187Y132038D01*
G01X1987936Y131918D01*
G01X1987682Y131806D01*
G01X1987425Y131700D01*
G01X1987166Y131601D01*
G01X1986903Y131510D01*
G01X1986638Y131426D01*
G01X1986371Y131350D01*
G01X1986102Y131281D01*
G01X1985832Y131219D01*
G01X1985559Y131165D01*
G01X1985285Y131119D01*
G01X1985010Y131080D01*
G01X1984734Y131049D01*
G01X1984457Y131025D01*
G01X1984180Y131009D01*
G01X1983902Y131001D01*
G01X1983625Y131001D01*
G01X1983347Y131008D01*
G01X1983070Y131023D01*
G01X1982793Y131046D01*
G01X1982517Y131076D01*
G01X1982242Y131114D01*
G01X1981968Y131160D01*
G01X1981695Y131213D01*
G01X1981424Y131274D01*
G01X1981155Y131343D01*
G01X1980887Y131418D01*
G01X1980622Y131502D01*
G01X1980360Y131592D01*
G01X1980100Y131690D01*
G01X1979843Y131795D01*
G01X1979589Y131907D01*
G01X1979338Y132026D01*
G01X1979090Y132152D01*
G01X1978846Y132285D01*
G01X1978606Y132425D01*
G01X1978370Y132571D01*
G01X1978138Y132723D01*
G01X1977910Y132882D01*
G01X1977687Y133048D01*
G01X1977468Y133219D01*
G01X1977255Y133397D01*
G01X1977046Y133580D01*
G01X1976842Y133769D01*
G01X1976644Y133964D01*
G01X1976452Y134164D01*
G01X1976265Y134369D01*
G01X1976083Y134580D01*
G01X1975908Y134795D01*
G01X1975739Y135015D01*
G01X1975575Y135240D01*
G01X1975419Y135469D01*
G01X1975268Y135703D01*
G01X1975124Y135941D01*
G01X1974987Y136182D01*
G01X1974857Y136427D01*
G01X1974733Y136676D01*
G01X1974617Y136928D01*
G01X1974507Y137183D01*
G01X1974405Y137442D01*
G01X1974309Y137703D01*
G01X1974221Y137966D01*
G01X1974141Y138232D01*
G01X1974068Y138500D01*
G01X1974002Y138770D01*
G01X1973944Y139041D01*
G01X1973893Y139314D01*
G01X1973850Y139589D01*
G01X1973815Y139864D01*
G01X1973787Y140141D01*
G01X1973767Y140418D01*
G01X1973755Y140695D01*
G01X1973750Y140973D01*
G01X1973750Y141000D01*
X1993750Y141000D02*
X1993750Y146000D01*
X1973750Y141000D02*
X1973750Y146000D01*
X2073750Y47000D02*
X2113750Y47000D01*
X2113750Y47000D02*
X2093750Y57000D01*
X2093750Y57000D02*
X2113750Y67000D01*
X2113750Y67000D02*
X2073750Y67000D01*
X2113750Y75000D02*
X2113750Y95000D01*
X2113750Y85000D02*
X2073750Y85000D01*
X2073750Y75000D02*
X2073750Y95000D01*
G01X2113750Y113000D02*
G01X2113750Y113000D01*
G01X2113746Y112722D01*
G01X2113735Y112445D01*
G01X2113715Y112168D01*
G01X2113688Y111891D01*
G01X2113654Y111616D01*
G01X2113611Y111341D01*
G01X2113562Y111068D01*
G01X2113504Y110796D01*
G01X2113439Y110526D01*
G01X2113367Y110258D01*
G01X2113287Y109992D01*
G01X2113200Y109728D01*
G01X2113105Y109467D01*
G01X2113003Y109208D01*
G01X2112894Y108953D01*
G01X2112778Y108700D01*
G01X2112656Y108451D01*
G01X2112526Y108206D01*
G01X2112389Y107964D01*
G01X2112246Y107726D01*
G01X2112096Y107492D01*
G01X2111940Y107262D01*
G01X2111778Y107037D01*
G01X2111609Y106816D01*
G01X2111434Y106600D01*
G01X2111253Y106389D01*
G01X2111067Y106184D01*
G01X2110875Y105983D01*
G01X2110677Y105788D01*
G01X2110474Y105598D01*
G01X2110266Y105414D01*
G01X2110053Y105236D01*
G01X2109835Y105064D01*
G01X2109612Y104898D01*
G01X2109385Y104739D01*
G01X2109153Y104585D01*
G01X2108917Y104438D01*
G01X2108677Y104298D01*
G01X2108434Y104165D01*
G01X2108187Y104038D01*
G01X2107936Y103918D01*
G01X2107682Y103806D01*
G01X2107425Y103700D01*
G01X2107166Y103601D01*
G01X2106903Y103510D01*
G01X2106638Y103426D01*
G01X2106371Y103350D01*
G01X2106102Y103281D01*
G01X2105832Y103219D01*
G01X2105559Y103165D01*
G01X2105285Y103119D01*
G01X2105010Y103080D01*
G01X2104734Y103049D01*
G01X2104457Y103025D01*
G01X2104180Y103009D01*
G01X2103902Y103001D01*
G01X2103625Y103001D01*
G01X2103347Y103008D01*
G01X2103070Y103023D01*
G01X2102793Y103046D01*
G01X2102517Y103076D01*
G01X2102242Y103114D01*
G01X2101968Y103160D01*
G01X2101695Y103213D01*
G01X2101424Y103274D01*
G01X2101155Y103343D01*
G01X2100887Y103418D01*
G01X2100622Y103502D01*
G01X2100360Y103592D01*
G01X2100100Y103690D01*
G01X2099843Y103795D01*
G01X2099589Y103907D01*
G01X2099338Y104026D01*
G01X2099090Y104152D01*
G01X2098846Y104285D01*
G01X2098606Y104425D01*
G01X2098370Y104571D01*
G01X2098138Y104723D01*
G01X2097910Y104882D01*
G01X2097687Y105048D01*
G01X2097468Y105219D01*
G01X2097255Y105397D01*
G01X2097046Y105580D01*
G01X2096842Y105769D01*
G01X2096644Y105964D01*
G01X2096452Y106164D01*
G01X2096265Y106369D01*
G01X2096083Y106580D01*
G01X2095908Y106795D01*
G01X2095739Y107015D01*
G01X2095575Y107240D01*
G01X2095419Y107469D01*
G01X2095268Y107703D01*
G01X2095124Y107941D01*
G01X2094987Y108182D01*
G01X2094857Y108427D01*
G01X2094733Y108676D01*
G01X2094617Y108928D01*
G01X2094507Y109183D01*
G01X2094405Y109442D01*
G01X2094309Y109703D01*
G01X2094221Y109966D01*
G01X2094141Y110232D01*
G01X2094068Y110500D01*
G01X2094002Y110770D01*
G01X2093944Y111041D01*
G01X2093893Y111314D01*
G01X2093850Y111589D01*
G01X2093815Y111864D01*
G01X2093787Y112141D01*
G01X2093767Y112418D01*
G01X2093755Y112695D01*
G01X2093750Y112973D01*
G01X2093750Y113000D01*
G01X2073750Y113000D02*
G01X2073750Y113000D01*
G01X2073754Y113278D01*
G01X2073765Y113555D01*
G01X2073785Y113832D01*
G01X2073812Y114109D01*
G01X2073846Y114384D01*
G01X2073889Y114659D01*
G01X2073938Y114932D01*
G01X2073996Y115204D01*
G01X2074061Y115474D01*
G01X2074133Y115742D01*
G01X2074213Y116008D01*
G01X2074300Y116272D01*
G01X2074395Y116533D01*
G01X2074497Y116792D01*
G01X2074606Y117047D01*
G01X2074722Y117300D01*
G01X2074844Y117549D01*
G01X2074974Y117794D01*
G01X2075111Y118036D01*
G01X2075254Y118274D01*
G01X2075404Y118508D01*
G01X2075560Y118738D01*
G01X2075722Y118963D01*
G01X2075891Y119184D01*
G01X2076066Y119400D01*
G01X2076247Y119611D01*
G01X2076433Y119816D01*
G01X2076625Y120017D01*
G01X2076823Y120212D01*
G01X2077026Y120402D01*
G01X2077234Y120586D01*
G01X2077447Y120764D01*
G01X2077665Y120936D01*
G01X2077888Y121102D01*
G01X2078115Y121261D01*
G01X2078347Y121415D01*
G01X2078583Y121562D01*
G01X2078823Y121702D01*
G01X2079066Y121835D01*
G01X2079313Y121962D01*
G01X2079564Y122082D01*
G01X2079818Y122194D01*
G01X2080075Y122300D01*
G01X2080334Y122399D01*
G01X2080597Y122490D01*
G01X2080862Y122574D01*
G01X2081129Y122650D01*
G01X2081398Y122719D01*
G01X2081668Y122781D01*
G01X2081941Y122835D01*
G01X2082215Y122881D01*
G01X2082490Y122920D01*
G01X2082766Y122951D01*
G01X2083043Y122975D01*
G01X2083320Y122991D01*
G01X2083598Y122999D01*
G01X2083875Y122999D01*
G01X2084153Y122992D01*
G01X2084430Y122977D01*
G01X2084707Y122954D01*
G01X2084983Y122924D01*
G01X2085258Y122886D01*
G01X2085532Y122840D01*
G01X2085805Y122787D01*
G01X2086076Y122726D01*
G01X2086345Y122657D01*
G01X2086613Y122582D01*
G01X2086878Y122498D01*
G01X2087140Y122408D01*
G01X2087400Y122310D01*
G01X2087657Y122205D01*
G01X2087911Y122093D01*
G01X2088162Y121974D01*
G01X2088410Y121848D01*
G01X2088654Y121715D01*
G01X2088894Y121575D01*
G01X2089130Y121429D01*
G01X2089362Y121277D01*
G01X2089590Y121118D01*
G01X2089813Y120952D01*
G01X2090032Y120781D01*
G01X2090245Y120603D01*
G01X2090454Y120420D01*
G01X2090658Y120231D01*
G01X2090856Y120036D01*
G01X2091048Y119836D01*
G01X2091235Y119631D01*
G01X2091417Y119420D01*
G01X2091592Y119205D01*
G01X2091761Y118985D01*
G01X2091925Y118760D01*
G01X2092081Y118531D01*
G01X2092232Y118297D01*
G01X2092376Y118059D01*
G01X2092513Y117818D01*
G01X2092643Y117573D01*
G01X2092767Y117324D01*
G01X2092883Y117072D01*
G01X2092993Y116817D01*
G01X2093095Y116558D01*
G01X2093191Y116297D01*
G01X2093279Y116034D01*
G01X2093359Y115768D01*
G01X2093432Y115500D01*
G01X2093498Y115230D01*
G01X2093556Y114959D01*
G01X2093607Y114686D01*
G01X2093650Y114411D01*
G01X2093685Y114136D01*
G01X2093713Y113859D01*
G01X2093733Y113582D01*
G01X2093745Y113305D01*
G01X2093750Y113027D01*
G01X2093750Y113000D01*
X2113750Y113000D02*
X2113750Y123000D01*
X2073750Y113000D02*
X2073750Y103000D01*
G01X2103750Y151000D02*
G01X2103750Y151000D01*
G01X2104028Y150996D01*
G01X2104305Y150985D01*
G01X2104582Y150965D01*
G01X2104859Y150938D01*
G01X2105134Y150904D01*
G01X2105409Y150861D01*
G01X2105682Y150812D01*
G01X2105954Y150754D01*
G01X2106224Y150689D01*
G01X2106492Y150617D01*
G01X2106758Y150537D01*
G01X2107022Y150450D01*
G01X2107283Y150355D01*
G01X2107542Y150253D01*
G01X2107797Y150144D01*
G01X2108050Y150028D01*
G01X2108299Y149906D01*
G01X2108544Y149776D01*
G01X2108786Y149639D01*
G01X2109024Y149496D01*
G01X2109258Y149346D01*
G01X2109488Y149190D01*
G01X2109713Y149028D01*
G01X2109934Y148859D01*
G01X2110150Y148684D01*
G01X2110361Y148503D01*
G01X2110566Y148317D01*
G01X2110767Y148125D01*
G01X2110962Y147927D01*
G01X2111152Y147724D01*
G01X2111336Y147516D01*
G01X2111514Y147303D01*
G01X2111686Y147085D01*
G01X2111852Y146862D01*
G01X2112011Y146635D01*
G01X2112165Y146403D01*
G01X2112312Y146167D01*
G01X2112452Y145927D01*
G01X2112585Y145684D01*
G01X2112712Y145437D01*
G01X2112832Y145186D01*
G01X2112944Y144932D01*
G01X2113050Y144675D01*
G01X2113149Y144416D01*
G01X2113240Y144153D01*
G01X2113324Y143888D01*
G01X2113400Y143621D01*
G01X2113469Y143352D01*
G01X2113531Y143082D01*
G01X2113585Y142809D01*
G01X2113631Y142535D01*
G01X2113670Y142260D01*
G01X2113701Y141984D01*
G01X2113725Y141707D01*
G01X2113741Y141430D01*
G01X2113749Y141152D01*
G01X2113750Y141000D01*
G01X2113746Y140722D01*
G01X2113735Y140445D01*
G01X2113715Y140168D01*
G01X2113688Y139891D01*
G01X2113654Y139616D01*
G01X2113611Y139341D01*
G01X2113562Y139068D01*
G01X2113504Y138796D01*
G01X2113439Y138526D01*
G01X2113367Y138258D01*
G01X2113287Y137992D01*
G01X2113200Y137728D01*
G01X2113105Y137467D01*
G01X2113003Y137208D01*
G01X2112894Y136953D01*
G01X2112778Y136700D01*
G01X2112656Y136451D01*
G01X2112526Y136206D01*
G01X2112389Y135964D01*
G01X2112246Y135726D01*
G01X2112096Y135492D01*
G01X2111940Y135262D01*
G01X2111778Y135037D01*
G01X2111609Y134816D01*
G01X2111434Y134600D01*
G01X2111253Y134389D01*
G01X2111067Y134184D01*
G01X2110875Y133983D01*
G01X2110677Y133788D01*
G01X2110474Y133598D01*
G01X2110266Y133414D01*
G01X2110053Y133236D01*
G01X2109835Y133064D01*
G01X2109612Y132898D01*
G01X2109385Y132739D01*
G01X2109153Y132585D01*
G01X2108917Y132438D01*
G01X2108677Y132298D01*
G01X2108434Y132165D01*
G01X2108187Y132038D01*
G01X2107936Y131918D01*
G01X2107682Y131806D01*
G01X2107425Y131700D01*
G01X2107166Y131601D01*
G01X2106903Y131510D01*
G01X2106638Y131426D01*
G01X2106371Y131350D01*
G01X2106102Y131281D01*
G01X2105832Y131219D01*
G01X2105559Y131165D01*
G01X2105285Y131119D01*
G01X2105010Y131080D01*
G01X2104734Y131049D01*
G01X2104457Y131025D01*
G01X2104180Y131009D01*
G01X2103902Y131001D01*
G01X2103750Y131000D01*
G01X2083750Y131000D02*
G01X2083750Y131000D01*
G01X2083472Y131004D01*
G01X2083195Y131015D01*
G01X2082918Y131035D01*
G01X2082641Y131062D01*
G01X2082366Y131096D01*
G01X2082091Y131139D01*
G01X2081818Y131188D01*
G01X2081546Y131246D01*
G01X2081276Y131311D01*
G01X2081008Y131383D01*
G01X2080742Y131463D01*
G01X2080478Y131550D01*
G01X2080217Y131645D01*
G01X2079958Y131747D01*
G01X2079703Y131856D01*
G01X2079450Y131972D01*
G01X2079201Y132094D01*
G01X2078956Y132224D01*
G01X2078714Y132361D01*
G01X2078476Y132504D01*
G01X2078242Y132654D01*
G01X2078012Y132810D01*
G01X2077787Y132972D01*
G01X2077566Y133141D01*
G01X2077350Y133316D01*
G01X2077139Y133497D01*
G01X2076934Y133683D01*
G01X2076733Y133875D01*
G01X2076538Y134073D01*
G01X2076348Y134276D01*
G01X2076164Y134484D01*
G01X2075986Y134697D01*
G01X2075814Y134915D01*
G01X2075648Y135138D01*
G01X2075489Y135365D01*
G01X2075335Y135597D01*
G01X2075188Y135833D01*
G01X2075048Y136073D01*
G01X2074915Y136316D01*
G01X2074788Y136563D01*
G01X2074668Y136814D01*
G01X2074556Y137068D01*
G01X2074450Y137325D01*
G01X2074351Y137584D01*
G01X2074260Y137847D01*
G01X2074176Y138112D01*
G01X2074100Y138379D01*
G01X2074031Y138648D01*
G01X2073969Y138918D01*
G01X2073915Y139191D01*
G01X2073869Y139465D01*
G01X2073830Y139740D01*
G01X2073799Y140016D01*
G01X2073775Y140293D01*
G01X2073759Y140570D01*
G01X2073751Y140848D01*
G01X2073751Y141125D01*
G01X2073758Y141403D01*
G01X2073773Y141680D01*
G01X2073796Y141957D01*
G01X2073826Y142233D01*
G01X2073864Y142508D01*
G01X2073910Y142782D01*
G01X2073963Y143055D01*
G01X2074024Y143326D01*
G01X2074093Y143595D01*
G01X2074168Y143863D01*
G01X2074252Y144128D01*
G01X2074342Y144390D01*
G01X2074440Y144650D01*
G01X2074545Y144907D01*
G01X2074657Y145161D01*
G01X2074776Y145412D01*
G01X2074902Y145660D01*
G01X2075035Y145904D01*
G01X2075175Y146144D01*
G01X2075321Y146380D01*
G01X2075473Y146612D01*
G01X2075632Y146840D01*
G01X2075798Y147063D01*
G01X2075969Y147282D01*
G01X2076147Y147495D01*
G01X2076330Y147704D01*
G01X2076519Y147908D01*
G01X2076714Y148106D01*
G01X2076914Y148298D01*
G01X2077119Y148485D01*
G01X2077330Y148667D01*
G01X2077545Y148842D01*
G01X2077765Y149011D01*
G01X2077990Y149175D01*
G01X2078219Y149331D01*
G01X2078453Y149482D01*
G01X2078691Y149626D01*
G01X2078932Y149763D01*
G01X2079177Y149893D01*
G01X2079426Y150017D01*
G01X2079678Y150133D01*
G01X2079933Y150243D01*
G01X2080192Y150345D01*
G01X2080453Y150441D01*
G01X2080716Y150529D01*
G01X2080982Y150609D01*
G01X2081250Y150682D01*
G01X2081520Y150748D01*
G01X2081791Y150806D01*
G01X2082064Y150857D01*
G01X2082339Y150900D01*
G01X2082614Y150935D01*
G01X2082891Y150963D01*
G01X2083168Y150983D01*
G01X2083445Y150995D01*
G01X2083723Y151000D01*
G01X2083750Y151000D01*
X2103750Y131000D02*
X2083750Y131000D01*
X2103750Y151000D02*
X2083750Y151000D01*
X1626250Y147250D02*
X1626250Y137250D01*
X1626250Y137250D02*
X1586250Y137250D01*
X1606250Y147250D02*
X1586250Y157250D01*
X1606250Y137250D02*
X1606250Y147250D01*
G01X1606250Y147250D02*
G01X1606250Y147250D01*
G01X1606254Y147528D01*
G01X1606265Y147805D01*
G01X1606285Y148082D01*
G01X1606312Y148359D01*
G01X1606346Y148634D01*
G01X1606389Y148909D01*
G01X1606438Y149182D01*
G01X1606496Y149454D01*
G01X1606561Y149724D01*
G01X1606633Y149992D01*
G01X1606713Y150258D01*
G01X1606800Y150522D01*
G01X1606895Y150783D01*
G01X1606997Y151042D01*
G01X1607106Y151297D01*
G01X1607222Y151550D01*
G01X1607344Y151799D01*
G01X1607474Y152044D01*
G01X1607611Y152286D01*
G01X1607754Y152524D01*
G01X1607904Y152758D01*
G01X1608060Y152988D01*
G01X1608222Y153213D01*
G01X1608391Y153434D01*
G01X1608566Y153650D01*
G01X1608747Y153861D01*
G01X1608933Y154066D01*
G01X1609125Y154267D01*
G01X1609323Y154462D01*
G01X1609526Y154652D01*
G01X1609734Y154836D01*
G01X1609947Y155014D01*
G01X1610165Y155186D01*
G01X1610388Y155352D01*
G01X1610615Y155511D01*
G01X1610847Y155665D01*
G01X1611083Y155812D01*
G01X1611323Y155952D01*
G01X1611566Y156085D01*
G01X1611813Y156212D01*
G01X1612064Y156332D01*
G01X1612318Y156444D01*
G01X1612575Y156550D01*
G01X1612834Y156649D01*
G01X1613097Y156740D01*
G01X1613362Y156824D01*
G01X1613629Y156900D01*
G01X1613898Y156969D01*
G01X1614168Y157031D01*
G01X1614441Y157085D01*
G01X1614715Y157131D01*
G01X1614990Y157170D01*
G01X1615266Y157201D01*
G01X1615543Y157225D01*
G01X1615820Y157241D01*
G01X1616098Y157249D01*
G01X1616375Y157249D01*
G01X1616653Y157242D01*
G01X1616930Y157227D01*
G01X1617207Y157204D01*
G01X1617483Y157174D01*
G01X1617758Y157136D01*
G01X1618032Y157090D01*
G01X1618305Y157037D01*
G01X1618576Y156976D01*
G01X1618845Y156907D01*
G01X1619113Y156832D01*
G01X1619378Y156748D01*
G01X1619640Y156658D01*
G01X1619900Y156560D01*
G01X1620157Y156455D01*
G01X1620411Y156343D01*
G01X1620662Y156224D01*
G01X1620910Y156098D01*
G01X1621154Y155965D01*
G01X1621394Y155825D01*
G01X1621630Y155679D01*
G01X1621862Y155527D01*
G01X1622090Y155368D01*
G01X1622313Y155202D01*
G01X1622532Y155031D01*
G01X1622745Y154853D01*
G01X1622954Y154670D01*
G01X1623158Y154481D01*
G01X1623356Y154286D01*
G01X1623548Y154086D01*
G01X1623735Y153881D01*
G01X1623917Y153670D01*
G01X1624092Y153455D01*
G01X1624261Y153235D01*
G01X1624425Y153010D01*
G01X1624581Y152781D01*
G01X1624732Y152547D01*
G01X1624876Y152309D01*
G01X1625013Y152068D01*
G01X1625143Y151823D01*
G01X1625267Y151574D01*
G01X1625383Y151322D01*
G01X1625493Y151067D01*
G01X1625595Y150808D01*
G01X1625691Y150547D01*
G01X1625779Y150284D01*
G01X1625859Y150018D01*
G01X1625932Y149750D01*
G01X1625998Y149480D01*
G01X1626056Y149209D01*
G01X1626107Y148936D01*
G01X1626150Y148661D01*
G01X1626185Y148386D01*
G01X1626213Y148109D01*
G01X1626233Y147832D01*
G01X1626245Y147555D01*
G01X1626250Y147277D01*
G01X1626250Y147250D01*
X1226250Y137250D02*
X1186250Y147250D01*
X1186250Y147250D02*
X1226250Y157250D01*
X1326250Y137250D02*
X1286250Y137250D01*
X1306250Y137250D02*
X1306250Y157250D01*
X1326250Y157250D02*
X1286250Y157250D01*
X2173750Y47000D02*
X2213750Y47000D01*
X2213750Y47000D02*
X2193750Y57000D01*
X2193750Y57000D02*
X2213750Y67000D01*
X2213750Y67000D02*
X2173750Y67000D01*
G01X2203750Y95000D02*
G01X2203750Y95000D01*
G01X2204028Y94996D01*
G01X2204305Y94985D01*
G01X2204582Y94965D01*
G01X2204859Y94938D01*
G01X2205134Y94904D01*
G01X2205409Y94861D01*
G01X2205682Y94812D01*
G01X2205954Y94754D01*
G01X2206224Y94689D01*
G01X2206492Y94617D01*
G01X2206758Y94537D01*
G01X2207022Y94450D01*
G01X2207283Y94355D01*
G01X2207542Y94253D01*
G01X2207797Y94144D01*
G01X2208050Y94028D01*
G01X2208299Y93906D01*
G01X2208544Y93776D01*
G01X2208786Y93639D01*
G01X2209024Y93496D01*
G01X2209258Y93346D01*
G01X2209488Y93190D01*
G01X2209713Y93028D01*
G01X2209934Y92859D01*
G01X2210150Y92684D01*
G01X2210361Y92503D01*
G01X2210566Y92317D01*
G01X2210767Y92125D01*
G01X2210962Y91927D01*
G01X2211152Y91724D01*
G01X2211336Y91516D01*
G01X2211514Y91303D01*
G01X2211686Y91085D01*
G01X2211852Y90862D01*
G01X2212011Y90635D01*
G01X2212165Y90403D01*
G01X2212312Y90167D01*
G01X2212452Y89927D01*
G01X2212585Y89684D01*
G01X2212712Y89437D01*
G01X2212832Y89186D01*
G01X2212944Y88932D01*
G01X2213050Y88675D01*
G01X2213149Y88416D01*
G01X2213240Y88153D01*
G01X2213324Y87888D01*
G01X2213400Y87621D01*
G01X2213469Y87352D01*
G01X2213531Y87082D01*
G01X2213585Y86809D01*
G01X2213631Y86535D01*
G01X2213670Y86260D01*
G01X2213701Y85984D01*
G01X2213725Y85707D01*
G01X2213741Y85430D01*
G01X2213749Y85152D01*
G01X2213750Y85000D01*
G01X2213746Y84722D01*
G01X2213735Y84445D01*
G01X2213715Y84168D01*
G01X2213688Y83891D01*
G01X2213654Y83616D01*
G01X2213611Y83341D01*
G01X2213562Y83068D01*
G01X2213504Y82796D01*
G01X2213439Y82526D01*
G01X2213367Y82258D01*
G01X2213287Y81992D01*
G01X2213200Y81728D01*
G01X2213105Y81467D01*
G01X2213003Y81208D01*
G01X2212894Y80953D01*
G01X2212778Y80700D01*
G01X2212656Y80451D01*
G01X2212526Y80206D01*
G01X2212389Y79964D01*
G01X2212246Y79726D01*
G01X2212096Y79492D01*
G01X2211940Y79262D01*
G01X2211778Y79037D01*
G01X2211609Y78816D01*
G01X2211434Y78600D01*
G01X2211253Y78389D01*
G01X2211067Y78184D01*
G01X2210875Y77983D01*
G01X2210677Y77788D01*
G01X2210474Y77598D01*
G01X2210266Y77414D01*
G01X2210053Y77236D01*
G01X2209835Y77064D01*
G01X2209612Y76898D01*
G01X2209385Y76739D01*
G01X2209153Y76585D01*
G01X2208917Y76438D01*
G01X2208677Y76298D01*
G01X2208434Y76165D01*
G01X2208187Y76038D01*
G01X2207936Y75918D01*
G01X2207682Y75806D01*
G01X2207425Y75700D01*
G01X2207166Y75601D01*
G01X2206903Y75510D01*
G01X2206638Y75426D01*
G01X2206371Y75350D01*
G01X2206102Y75281D01*
G01X2205832Y75219D01*
G01X2205559Y75165D01*
G01X2205285Y75119D01*
G01X2205010Y75080D01*
G01X2204734Y75049D01*
G01X2204457Y75025D01*
G01X2204180Y75009D01*
G01X2203902Y75001D01*
G01X2203750Y75000D01*
G01X2183750Y75000D02*
G01X2183750Y75000D01*
G01X2183472Y75004D01*
G01X2183195Y75015D01*
G01X2182918Y75035D01*
G01X2182641Y75062D01*
G01X2182366Y75096D01*
G01X2182091Y75139D01*
G01X2181818Y75188D01*
G01X2181546Y75246D01*
G01X2181276Y75311D01*
G01X2181008Y75383D01*
G01X2180742Y75463D01*
G01X2180478Y75550D01*
G01X2180217Y75645D01*
G01X2179958Y75747D01*
G01X2179703Y75856D01*
G01X2179450Y75972D01*
G01X2179201Y76094D01*
G01X2178956Y76224D01*
G01X2178714Y76361D01*
G01X2178476Y76504D01*
G01X2178242Y76654D01*
G01X2178012Y76810D01*
G01X2177787Y76972D01*
G01X2177566Y77141D01*
G01X2177350Y77316D01*
G01X2177139Y77497D01*
G01X2176934Y77683D01*
G01X2176733Y77875D01*
G01X2176538Y78073D01*
G01X2176348Y78276D01*
G01X2176164Y78484D01*
G01X2175986Y78697D01*
G01X2175814Y78915D01*
G01X2175648Y79138D01*
G01X2175489Y79365D01*
G01X2175335Y79597D01*
G01X2175188Y79833D01*
G01X2175048Y80073D01*
G01X2174915Y80316D01*
G01X2174788Y80563D01*
G01X2174668Y80814D01*
G01X2174556Y81068D01*
G01X2174450Y81325D01*
G01X2174351Y81584D01*
G01X2174260Y81847D01*
G01X2174176Y82112D01*
G01X2174100Y82379D01*
G01X2174031Y82648D01*
G01X2173969Y82918D01*
G01X2173915Y83191D01*
G01X2173869Y83465D01*
G01X2173830Y83740D01*
G01X2173799Y84016D01*
G01X2173775Y84293D01*
G01X2173759Y84570D01*
G01X2173751Y84848D01*
G01X2173751Y85125D01*
G01X2173758Y85403D01*
G01X2173773Y85680D01*
G01X2173796Y85957D01*
G01X2173826Y86233D01*
G01X2173864Y86508D01*
G01X2173910Y86782D01*
G01X2173963Y87055D01*
G01X2174024Y87326D01*
G01X2174093Y87595D01*
G01X2174168Y87863D01*
G01X2174252Y88128D01*
G01X2174342Y88390D01*
G01X2174440Y88650D01*
G01X2174545Y88907D01*
G01X2174657Y89161D01*
G01X2174776Y89412D01*
G01X2174902Y89660D01*
G01X2175035Y89904D01*
G01X2175175Y90144D01*
G01X2175321Y90380D01*
G01X2175473Y90612D01*
G01X2175632Y90840D01*
G01X2175798Y91063D01*
G01X2175969Y91282D01*
G01X2176147Y91495D01*
G01X2176330Y91704D01*
G01X2176519Y91908D01*
G01X2176714Y92106D01*
G01X2176914Y92298D01*
G01X2177119Y92485D01*
G01X2177330Y92667D01*
G01X2177545Y92842D01*
G01X2177765Y93011D01*
G01X2177990Y93175D01*
G01X2178219Y93331D01*
G01X2178453Y93482D01*
G01X2178691Y93626D01*
G01X2178932Y93763D01*
G01X2179177Y93893D01*
G01X2179426Y94017D01*
G01X2179678Y94133D01*
G01X2179933Y94243D01*
G01X2180192Y94345D01*
G01X2180453Y94441D01*
G01X2180716Y94529D01*
G01X2180982Y94609D01*
G01X2181250Y94682D01*
G01X2181520Y94748D01*
G01X2181791Y94806D01*
G01X2182064Y94857D01*
G01X2182339Y94900D01*
G01X2182614Y94935D01*
G01X2182891Y94963D01*
G01X2183168Y94983D01*
G01X2183445Y94995D01*
G01X2183723Y95000D01*
G01X2183750Y95000D01*
X2203750Y75000D02*
X2183750Y75000D01*
X2203750Y95000D02*
X2183750Y95000D01*
G01X2213750Y113000D02*
G01X2213750Y113000D01*
G01X2213746Y112722D01*
G01X2213735Y112445D01*
G01X2213715Y112168D01*
G01X2213688Y111891D01*
G01X2213654Y111616D01*
G01X2213611Y111341D01*
G01X2213562Y111068D01*
G01X2213504Y110796D01*
G01X2213439Y110526D01*
G01X2213367Y110258D01*
G01X2213287Y109992D01*
G01X2213200Y109728D01*
G01X2213105Y109467D01*
G01X2213003Y109208D01*
G01X2212894Y108953D01*
G01X2212778Y108700D01*
G01X2212656Y108451D01*
G01X2212526Y108206D01*
G01X2212389Y107964D01*
G01X2212246Y107726D01*
G01X2212096Y107492D01*
G01X2211940Y107262D01*
G01X2211778Y107037D01*
G01X2211609Y106816D01*
G01X2211434Y106600D01*
G01X2211253Y106389D01*
G01X2211067Y106184D01*
G01X2210875Y105983D01*
G01X2210677Y105788D01*
G01X2210474Y105598D01*
G01X2210266Y105414D01*
G01X2210053Y105236D01*
G01X2209835Y105064D01*
G01X2209612Y104898D01*
G01X2209385Y104739D01*
G01X2209153Y104585D01*
G01X2208917Y104438D01*
G01X2208677Y104298D01*
G01X2208434Y104165D01*
G01X2208187Y104038D01*
G01X2207936Y103918D01*
G01X2207682Y103806D01*
G01X2207425Y103700D01*
G01X2207166Y103601D01*
G01X2206903Y103510D01*
G01X2206638Y103426D01*
G01X2206371Y103350D01*
G01X2206102Y103281D01*
G01X2205832Y103219D01*
G01X2205559Y103165D01*
G01X2205285Y103119D01*
G01X2205010Y103080D01*
G01X2204734Y103049D01*
G01X2204457Y103025D01*
G01X2204180Y103009D01*
G01X2203902Y103001D01*
G01X2203625Y103001D01*
G01X2203347Y103008D01*
G01X2203070Y103023D01*
G01X2202793Y103046D01*
G01X2202517Y103076D01*
G01X2202242Y103114D01*
G01X2201968Y103160D01*
G01X2201695Y103213D01*
G01X2201424Y103274D01*
G01X2201155Y103343D01*
G01X2200887Y103418D01*
G01X2200622Y103502D01*
G01X2200360Y103592D01*
G01X2200100Y103690D01*
G01X2199843Y103795D01*
G01X2199589Y103907D01*
G01X2199338Y104026D01*
G01X2199090Y104152D01*
G01X2198846Y104285D01*
G01X2198606Y104425D01*
G01X2198370Y104571D01*
G01X2198138Y104723D01*
G01X2197910Y104882D01*
G01X2197687Y105048D01*
G01X2197468Y105219D01*
G01X2197255Y105397D01*
G01X2197046Y105580D01*
G01X2196842Y105769D01*
G01X2196644Y105964D01*
G01X2196452Y106164D01*
G01X2196265Y106369D01*
G01X2196083Y106580D01*
G01X2195908Y106795D01*
G01X2195739Y107015D01*
G01X2195575Y107240D01*
G01X2195419Y107469D01*
G01X2195268Y107703D01*
G01X2195124Y107941D01*
G01X2194987Y108182D01*
G01X2194857Y108427D01*
G01X2194733Y108676D01*
G01X2194617Y108928D01*
G01X2194507Y109183D01*
G01X2194405Y109442D01*
G01X2194309Y109703D01*
G01X2194221Y109966D01*
G01X2194141Y110232D01*
G01X2194068Y110500D01*
G01X2194002Y110770D01*
G01X2193944Y111041D01*
G01X2193893Y111314D01*
G01X2193850Y111589D01*
G01X2193815Y111864D01*
G01X2193787Y112141D01*
G01X2193767Y112418D01*
G01X2193755Y112695D01*
G01X2193750Y112973D01*
G01X2193750Y113000D01*
G01X2173750Y113000D02*
G01X2173750Y113000D01*
G01X2173754Y113278D01*
G01X2173765Y113555D01*
G01X2173785Y113832D01*
G01X2173812Y114109D01*
G01X2173846Y114384D01*
G01X2173889Y114659D01*
G01X2173938Y114932D01*
G01X2173996Y115204D01*
G01X2174061Y115474D01*
G01X2174133Y115742D01*
G01X2174213Y116008D01*
G01X2174300Y116272D01*
G01X2174395Y116533D01*
G01X2174497Y116792D01*
G01X2174606Y117047D01*
G01X2174722Y117300D01*
G01X2174844Y117549D01*
G01X2174974Y117794D01*
G01X2175111Y118036D01*
G01X2175254Y118274D01*
G01X2175404Y118508D01*
G01X2175560Y118738D01*
G01X2175722Y118963D01*
G01X2175891Y119184D01*
G01X2176066Y119400D01*
G01X2176247Y119611D01*
G01X2176433Y119816D01*
G01X2176625Y120017D01*
G01X2176823Y120212D01*
G01X2177026Y120402D01*
G01X2177234Y120586D01*
G01X2177447Y120764D01*
G01X2177665Y120936D01*
G01X2177888Y121102D01*
G01X2178115Y121261D01*
G01X2178347Y121415D01*
G01X2178583Y121562D01*
G01X2178823Y121702D01*
G01X2179066Y121835D01*
G01X2179313Y121962D01*
G01X2179564Y122082D01*
G01X2179818Y122194D01*
G01X2180075Y122300D01*
G01X2180334Y122399D01*
G01X2180597Y122490D01*
G01X2180862Y122574D01*
G01X2181129Y122650D01*
G01X2181398Y122719D01*
G01X2181668Y122781D01*
G01X2181941Y122835D01*
G01X2182215Y122881D01*
G01X2182490Y122920D01*
G01X2182766Y122951D01*
G01X2183043Y122975D01*
G01X2183320Y122991D01*
G01X2183598Y122999D01*
G01X2183875Y122999D01*
G01X2184153Y122992D01*
G01X2184430Y122977D01*
G01X2184707Y122954D01*
G01X2184983Y122924D01*
G01X2185258Y122886D01*
G01X2185532Y122840D01*
G01X2185805Y122787D01*
G01X2186076Y122726D01*
G01X2186345Y122657D01*
G01X2186613Y122582D01*
G01X2186878Y122498D01*
G01X2187140Y122408D01*
G01X2187400Y122310D01*
G01X2187657Y122205D01*
G01X2187911Y122093D01*
G01X2188162Y121974D01*
G01X2188410Y121848D01*
G01X2188654Y121715D01*
G01X2188894Y121575D01*
G01X2189130Y121429D01*
G01X2189362Y121277D01*
G01X2189590Y121118D01*
G01X2189813Y120952D01*
G01X2190032Y120781D01*
G01X2190245Y120603D01*
G01X2190454Y120420D01*
G01X2190658Y120231D01*
G01X2190856Y120036D01*
G01X2191048Y119836D01*
G01X2191235Y119631D01*
G01X2191417Y119420D01*
G01X2191592Y119205D01*
G01X2191761Y118985D01*
G01X2191925Y118760D01*
G01X2192081Y118531D01*
G01X2192232Y118297D01*
G01X2192376Y118059D01*
G01X2192513Y117818D01*
G01X2192643Y117573D01*
G01X2192767Y117324D01*
G01X2192883Y117072D01*
G01X2192993Y116817D01*
G01X2193095Y116558D01*
G01X2193191Y116297D01*
G01X2193279Y116034D01*
G01X2193359Y115768D01*
G01X2193432Y115500D01*
G01X2193498Y115230D01*
G01X2193556Y114959D01*
G01X2193607Y114686D01*
G01X2193650Y114411D01*
G01X2193685Y114136D01*
G01X2193713Y113859D01*
G01X2193733Y113582D01*
G01X2193745Y113305D01*
G01X2193750Y113027D01*
G01X2193750Y113000D01*
X2213750Y113000D02*
X2213750Y123000D01*
X2173750Y113000D02*
X2173750Y103000D01*
X2213750Y131000D02*
X2213750Y151000D01*
X2213750Y141000D02*
X2173750Y141000D01*
X2173750Y131000D02*
X2173750Y151000D01*
G01X790547Y99571D02*
G01X790547Y99571D01*
G01X790828Y99376D01*
G01X791102Y99172D01*
G01X791369Y98959D01*
G01X791629Y98737D01*
G01X791881Y98506D01*
G01X792125Y98267D01*
G01X792361Y98019D01*
G01X792588Y97764D01*
G01X792806Y97501D01*
G01X793015Y97230D01*
G01X793214Y96953D01*
G01X793404Y96669D01*
G01X793585Y96379D01*
G01X793755Y96082D01*
G01X793915Y95780D01*
G01X794064Y95473D01*
G01X794203Y95161D01*
G01X794332Y94844D01*
G01X794449Y94523D01*
G01X794555Y94199D01*
G01X794651Y93870D01*
G01X794734Y93539D01*
G01X794807Y93205D01*
G01X794868Y92869D01*
G01X794918Y92531D01*
G01X794956Y92191D01*
G01X794982Y91851D01*
G01X794997Y91509D01*
G01X795000Y91250D01*
G01X794994Y90908D01*
G01X794977Y90567D01*
G01X794947Y90227D01*
G01X794907Y89887D01*
G01X794854Y89550D01*
G01X794791Y89214D01*
G01X794715Y88881D01*
G01X794629Y88550D01*
G01X794531Y88223D01*
G01X794422Y87899D01*
G01X794302Y87579D01*
G01X794171Y87263D01*
G01X794029Y86952D01*
G01X793877Y86646D01*
G01X793715Y86345D01*
G01X793542Y86051D01*
G01X793359Y85762D01*
G01X793167Y85479D01*
G01X792965Y85204D01*
G01X792754Y84935D01*
G01X792534Y84674D01*
G01X792304Y84420D01*
G01X792067Y84175D01*
G01X791821Y83937D01*
G01X791567Y83709D01*
G01X791306Y83489D01*
G01X791037Y83278D01*
G01X790761Y83076D01*
G01X790478Y82884D01*
G01X790189Y82702D01*
G01X789894Y82529D01*
G01X789593Y82367D01*
G01X789287Y82216D01*
G01X788976Y82074D01*
G01X788660Y81944D01*
G01X788340Y81824D01*
G01X788016Y81716D01*
G01X787688Y81618D01*
G01X787358Y81532D01*
G01X787024Y81457D01*
G01X786688Y81394D01*
G01X786351Y81342D01*
G01X786011Y81301D01*
G01X785671Y81273D01*
G01X785330Y81255D01*
G01X785000Y81250D01*
X785000Y81250D02*
X765000Y81250D01*
G01X765000Y81250D02*
G01X765000Y81250D01*
G01X764630Y81257D01*
G01X764260Y81277D01*
G01X763891Y81312D01*
G01X763524Y81360D01*
G01X763159Y81421D01*
G01X762796Y81496D01*
G01X762436Y81584D01*
G01X762080Y81686D01*
G01X761728Y81800D01*
G01X761380Y81928D01*
G01X761038Y82068D01*
G01X760700Y82222D01*
G01X760369Y82387D01*
G01X760044Y82564D01*
G01X759726Y82754D01*
G01X759415Y82955D01*
G01X759112Y83168D01*
G01X758816Y83391D01*
G01X758530Y83625D01*
G01X758252Y83870D01*
G01X757983Y84125D01*
G01X757724Y84390D01*
G01X757475Y84664D01*
G01X757236Y84947D01*
G01X757008Y85239D01*
G01X756791Y85539D01*
G01X756585Y85847D01*
G01X756391Y86162D01*
G01X756209Y86485D01*
G01X756038Y86813D01*
G01X755880Y87148D01*
G01X755734Y87489D01*
G01X755601Y87834D01*
G01X755481Y88185D01*
G01X755374Y88539D01*
G01X755281Y88898D01*
G01X755200Y89259D01*
G01X755133Y89623D01*
G01X755080Y89990D01*
G01X755040Y90358D01*
G01X755014Y90727D01*
G01X755001Y91098D01*
G01X755002Y91468D01*
G01X755017Y91838D01*
G01X755046Y92207D01*
G01X755088Y92575D01*
G01X755144Y92941D01*
G01X755213Y93305D01*
G01X755296Y93666D01*
G01X755392Y94024D01*
G01X755502Y94378D01*
G01X755624Y94727D01*
G01X755759Y95072D01*
G01X755907Y95411D01*
G01X756067Y95745D01*
G01X756240Y96073D01*
G01X756425Y96394D01*
G01X756621Y96708D01*
G01X756829Y97015D01*
G01X757048Y97313D01*
G01X757278Y97604D01*
G01X757518Y97885D01*
G01X757769Y98158D01*
G01X757929Y98321D01*
X790000Y119250D02*
X755000Y119250D01*
X755000Y111750D02*
X755000Y126750D01*
X790000Y119250D02*
X790000Y116750D01*
X772500Y147250D02*
X755000Y157250D01*
X785000Y137250D02*
X755000Y137250D01*
X775000Y152250D02*
X767500Y137250D01*
X692500Y126750D02*
X692500Y109250D01*
X692500Y109250D02*
X675000Y109250D01*
X675000Y109250D02*
X675000Y119250D01*
G01X665000Y109250D02*
G01X665000Y109250D01*
G01X664815Y109252D01*
G01X664630Y109257D01*
G01X664445Y109265D01*
G01X664260Y109277D01*
G01X664075Y109293D01*
G01X663891Y109312D01*
G01X663707Y109334D01*
G01X663524Y109360D01*
G01X663341Y109389D01*
G01X663159Y109421D01*
G01X662977Y109457D01*
G01X662796Y109496D01*
G01X662616Y109538D01*
G01X662436Y109584D01*
G01X662258Y109633D01*
G01X662080Y109686D01*
G01X661904Y109741D01*
G01X661728Y109800D01*
G01X661554Y109863D01*
G01X661380Y109928D01*
G01X661208Y109997D01*
G01X661038Y110068D01*
G01X660868Y110143D01*
G01X660700Y110222D01*
G01X660534Y110303D01*
G01X660369Y110387D01*
G01X660206Y110474D01*
G01X660044Y110564D01*
G01X659884Y110658D01*
G01X659726Y110754D01*
G01X659569Y110853D01*
G01X659415Y110955D01*
G01X659262Y111060D01*
G01X659112Y111168D01*
G01X658963Y111278D01*
G01X658816Y111391D01*
G01X658672Y111507D01*
G01X658530Y111625D01*
G01X658389Y111747D01*
G01X658252Y111870D01*
G01X658116Y111997D01*
G01X657983Y112125D01*
G01X657852Y112256D01*
G01X657724Y112390D01*
G01X657598Y112526D01*
G01X657475Y112664D01*
G01X657354Y112805D01*
G01X657236Y112947D01*
G01X657121Y113092D01*
G01X657008Y113239D01*
G01X656898Y113388D01*
G01X656791Y113539D01*
G01X656687Y113692D01*
G01X656585Y113847D01*
G01X656487Y114004D01*
G01X656391Y114162D01*
G01X656298Y114323D01*
G01X656209Y114485D01*
G01X656122Y114648D01*
G01X656038Y114813D01*
G01X655957Y114980D01*
G01X655880Y115148D01*
G01X655806Y115318D01*
G01X655734Y115489D01*
G01X655666Y115661D01*
G01X655601Y115834D01*
G01X655540Y116009D01*
G01X655481Y116185D01*
G01X655426Y116362D01*
G01X655374Y116539D01*
G01X655326Y116718D01*
G01X655281Y116898D01*
G01X655239Y117078D01*
G01X655200Y117259D01*
G01X655165Y117441D01*
G01X655133Y117623D01*
G01X655105Y117806D01*
G01X655080Y117990D01*
G01X655058Y118174D01*
G01X655040Y118358D01*
G01X655025Y118543D01*
G01X655014Y118727D01*
G01X655006Y118912D01*
G01X655001Y119098D01*
G01X655000Y119283D01*
G01X655002Y119468D01*
G01X655008Y119653D01*
G01X655017Y119838D01*
G01X655030Y120023D01*
G01X655046Y120207D01*
G01X655065Y120391D01*
G01X655088Y120575D01*
G01X655114Y120758D01*
G01X655144Y120941D01*
G01X655177Y121123D01*
G01X655213Y121305D01*
G01X655253Y121486D01*
G01X655296Y121666D01*
G01X655343Y121845D01*
G01X655392Y122024D01*
G01X655445Y122201D01*
G01X655502Y122378D01*
G01X655561Y122553D01*
G01X655624Y122727D01*
G01X655690Y122900D01*
G01X655759Y123072D01*
G01X655832Y123242D01*
G01X655907Y123411D01*
G01X655986Y123579D01*
G01X656067Y123745D01*
G01X656152Y123910D01*
G01X656240Y124073D01*
G01X656331Y124234D01*
G01X656425Y124394D01*
G01X656521Y124552D01*
G01X656621Y124708D01*
G01X656723Y124862D01*
G01X656829Y125015D01*
G01X656937Y125165D01*
G01X657048Y125313D01*
G01X657161Y125459D01*
G01X657278Y125604D01*
G01X657397Y125745D01*
G01X657518Y125885D01*
G01X657642Y126023D01*
G01X657769Y126158D01*
G01X657898Y126290D01*
G01X658030Y126421D01*
G01X658164Y126548D01*
G01X658300Y126674D01*
G01X658439Y126797D01*
G01X658580Y126917D01*
G01X658723Y127034D01*
G01X658868Y127149D01*
G01X659015Y127261D01*
G01X659165Y127371D01*
G01X659316Y127478D01*
G01X659469Y127581D01*
G01X659625Y127682D01*
G01X659782Y127780D01*
G01X659941Y127876D01*
G01X660101Y127968D01*
G01X660263Y128057D01*
G01X660427Y128143D01*
G01X660593Y128226D01*
G01X660760Y128306D01*
G01X660928Y128383D01*
G01X661098Y128457D01*
G01X661269Y128528D01*
G01X661442Y128595D01*
G01X661615Y128660D01*
G01X661790Y128721D01*
G01X661966Y128779D01*
G01X662143Y128833D01*
G01X662321Y128884D01*
G01X662500Y128932D01*
G01X662679Y128977D01*
G01X662860Y129018D01*
G01X663041Y129056D01*
G01X663223Y129091D01*
G01X663406Y129122D01*
G01X663589Y129150D01*
G01X663772Y129174D01*
G01X663956Y129195D01*
G01X664141Y129213D01*
G01X664325Y129227D01*
G01X664510Y129238D01*
G01X664695Y129245D01*
G01X664880Y129249D01*
G01X665066Y129250D01*
G01X665251Y129247D01*
G01X665436Y129241D01*
G01X665621Y129231D01*
G01X665805Y129218D01*
G01X665990Y129201D01*
G01X666174Y129181D01*
G01X666358Y129157D01*
G01X666541Y129131D01*
G01X666724Y129100D01*
G01X666906Y129067D01*
G01X667087Y129030D01*
G01X667268Y128989D01*
G01X667448Y128946D01*
G01X667627Y128899D01*
G01X667805Y128848D01*
G01X667982Y128795D01*
G01X668159Y128738D01*
G01X668334Y128678D01*
G01X668508Y128615D01*
G01X668681Y128548D01*
G01X668852Y128478D01*
G01X669022Y128405D01*
G01X669191Y128329D01*
G01X669359Y128250D01*
G01X669525Y128168D01*
G01X669689Y128083D01*
G01X669852Y127994D01*
G01X670013Y127903D01*
G01X670172Y127809D01*
G01X670330Y127711D01*
G01X670486Y127611D01*
G01X670639Y127508D01*
G01X670791Y127402D01*
G01X670941Y127294D01*
G01X671089Y127182D01*
G01X671235Y127068D01*
G01X671379Y126951D01*
G01X671520Y126832D01*
G01X671660Y126710D01*
G01X671797Y126585D01*
G01X671931Y126458D01*
G01X672064Y126329D01*
G01X672193Y126197D01*
G01X672321Y126062D01*
G01X672446Y125925D01*
G01X672568Y125786D01*
G01X672688Y125645D01*
G01X672805Y125502D01*
G01X672919Y125356D01*
G01X673031Y125208D01*
G01X673140Y125059D01*
G01X673246Y124907D01*
G01X673349Y124753D01*
G01X673450Y124598D01*
G01X673548Y124440D01*
G01X673642Y124281D01*
G01X673734Y124120D01*
G01X673823Y123958D01*
G01X673908Y123794D01*
G01X673991Y123628D01*
G01X674070Y123461D01*
G01X674147Y123292D01*
G01X674220Y123122D01*
G01X674290Y122950D01*
G01X674357Y122778D01*
G01X674421Y122604D01*
G01X674481Y122429D01*
G01X674539Y122253D01*
G01X674592Y122076D01*
G01X674643Y121897D01*
G01X674691Y121718D01*
G01X674735Y121539D01*
G01X674775Y121358D01*
G01X674813Y121177D01*
G01X674847Y120995D01*
G01X674877Y120812D01*
G01X674904Y120629D01*
G01X674928Y120445D01*
G01X674949Y120261D01*
G01X674966Y120077D01*
G01X674979Y119892D01*
G01X674990Y119707D01*
G01X674996Y119522D01*
G01X675000Y119337D01*
G01X675000Y119250D01*
X695000Y137250D02*
X655000Y147250D01*
X655000Y147250D02*
X695000Y157250D01*
X1426250Y137250D02*
X1386250Y137250D01*
G01X1406250Y147250D02*
G01X1406250Y147250D01*
G01X1406254Y147528D01*
G01X1406265Y147805D01*
G01X1406285Y148082D01*
G01X1406312Y148359D01*
G01X1406346Y148634D01*
G01X1406389Y148909D01*
G01X1406438Y149182D01*
G01X1406496Y149454D01*
G01X1406561Y149724D01*
G01X1406633Y149992D01*
G01X1406713Y150258D01*
G01X1406800Y150522D01*
G01X1406895Y150783D01*
G01X1406997Y151042D01*
G01X1407106Y151297D01*
G01X1407222Y151550D01*
G01X1407344Y151799D01*
G01X1407474Y152044D01*
G01X1407611Y152286D01*
G01X1407754Y152524D01*
G01X1407904Y152758D01*
G01X1408060Y152988D01*
G01X1408222Y153213D01*
G01X1408391Y153434D01*
G01X1408566Y153650D01*
G01X1408747Y153861D01*
G01X1408933Y154066D01*
G01X1409125Y154267D01*
G01X1409323Y154462D01*
G01X1409526Y154652D01*
G01X1409734Y154836D01*
G01X1409947Y155014D01*
G01X1410165Y155186D01*
G01X1410388Y155352D01*
G01X1410615Y155511D01*
G01X1410847Y155665D01*
G01X1411083Y155812D01*
G01X1411323Y155952D01*
G01X1411566Y156085D01*
G01X1411813Y156212D01*
G01X1412064Y156332D01*
G01X1412318Y156444D01*
G01X1412575Y156550D01*
G01X1412834Y156649D01*
G01X1413097Y156740D01*
G01X1413362Y156824D01*
G01X1413629Y156900D01*
G01X1413898Y156969D01*
G01X1414168Y157031D01*
G01X1414441Y157085D01*
G01X1414715Y157131D01*
G01X1414990Y157170D01*
G01X1415266Y157201D01*
G01X1415543Y157225D01*
G01X1415820Y157241D01*
G01X1416098Y157249D01*
G01X1416375Y157249D01*
G01X1416653Y157242D01*
G01X1416930Y157227D01*
G01X1417207Y157204D01*
G01X1417483Y157174D01*
G01X1417758Y157136D01*
G01X1418032Y157090D01*
G01X1418305Y157037D01*
G01X1418576Y156976D01*
G01X1418845Y156907D01*
G01X1419113Y156832D01*
G01X1419378Y156748D01*
G01X1419640Y156658D01*
G01X1419900Y156560D01*
G01X1420157Y156455D01*
G01X1420411Y156343D01*
G01X1420662Y156224D01*
G01X1420910Y156098D01*
G01X1421154Y155965D01*
G01X1421394Y155825D01*
G01X1421630Y155679D01*
G01X1421862Y155527D01*
G01X1422090Y155368D01*
G01X1422313Y155202D01*
G01X1422532Y155031D01*
G01X1422745Y154853D01*
G01X1422954Y154670D01*
G01X1423158Y154481D01*
G01X1423356Y154286D01*
G01X1423548Y154086D01*
G01X1423735Y153881D01*
G01X1423917Y153670D01*
G01X1424092Y153455D01*
G01X1424261Y153235D01*
G01X1424425Y153010D01*
G01X1424581Y152781D01*
G01X1424732Y152547D01*
G01X1424876Y152309D01*
G01X1425013Y152068D01*
G01X1425143Y151823D01*
G01X1425267Y151574D01*
G01X1425383Y151322D01*
G01X1425493Y151067D01*
G01X1425595Y150808D01*
G01X1425691Y150547D01*
G01X1425779Y150284D01*
G01X1425859Y150018D01*
G01X1425932Y149750D01*
G01X1425998Y149480D01*
G01X1426056Y149209D01*
G01X1426107Y148936D01*
G01X1426150Y148661D01*
G01X1426185Y148386D01*
G01X1426213Y148109D01*
G01X1426233Y147832D01*
G01X1426245Y147555D01*
G01X1426250Y147277D01*
G01X1426250Y147250D01*
G01X1386250Y147250D02*
G01X1386250Y147250D01*
G01X1386254Y147528D01*
G01X1386265Y147805D01*
G01X1386285Y148082D01*
G01X1386312Y148359D01*
G01X1386346Y148634D01*
G01X1386389Y148909D01*
G01X1386438Y149182D01*
G01X1386496Y149454D01*
G01X1386561Y149724D01*
G01X1386633Y149992D01*
G01X1386713Y150258D01*
G01X1386800Y150522D01*
G01X1386895Y150783D01*
G01X1386997Y151042D01*
G01X1387106Y151297D01*
G01X1387222Y151550D01*
G01X1387344Y151799D01*
G01X1387474Y152044D01*
G01X1387611Y152286D01*
G01X1387754Y152524D01*
G01X1387904Y152758D01*
G01X1388060Y152988D01*
G01X1388222Y153213D01*
G01X1388391Y153434D01*
G01X1388566Y153650D01*
G01X1388747Y153861D01*
G01X1388933Y154066D01*
G01X1389125Y154267D01*
G01X1389323Y154462D01*
G01X1389526Y154652D01*
G01X1389734Y154836D01*
G01X1389947Y155014D01*
G01X1390165Y155186D01*
G01X1390388Y155352D01*
G01X1390615Y155511D01*
G01X1390847Y155665D01*
G01X1391083Y155812D01*
G01X1391323Y155952D01*
G01X1391566Y156085D01*
G01X1391813Y156212D01*
G01X1392064Y156332D01*
G01X1392318Y156444D01*
G01X1392575Y156550D01*
G01X1392834Y156649D01*
G01X1393097Y156740D01*
G01X1393362Y156824D01*
G01X1393629Y156900D01*
G01X1393898Y156969D01*
G01X1394168Y157031D01*
G01X1394441Y157085D01*
G01X1394715Y157131D01*
G01X1394990Y157170D01*
G01X1395266Y157201D01*
G01X1395543Y157225D01*
G01X1395820Y157241D01*
G01X1396098Y157249D01*
G01X1396375Y157249D01*
G01X1396653Y157242D01*
G01X1396930Y157227D01*
G01X1397207Y157204D01*
G01X1397483Y157174D01*
G01X1397758Y157136D01*
G01X1398032Y157090D01*
G01X1398305Y157037D01*
G01X1398576Y156976D01*
G01X1398845Y156907D01*
G01X1399113Y156832D01*
G01X1399378Y156748D01*
G01X1399640Y156658D01*
G01X1399900Y156560D01*
G01X1400157Y156455D01*
G01X1400411Y156343D01*
G01X1400662Y156224D01*
G01X1400910Y156098D01*
G01X1401154Y155965D01*
G01X1401394Y155825D01*
G01X1401630Y155679D01*
G01X1401862Y155527D01*
G01X1402090Y155368D01*
G01X1402313Y155202D01*
G01X1402532Y155031D01*
G01X1402745Y154853D01*
G01X1402954Y154670D01*
G01X1403158Y154481D01*
G01X1403356Y154286D01*
G01X1403548Y154086D01*
G01X1403735Y153881D01*
G01X1403917Y153670D01*
G01X1404092Y153455D01*
G01X1404261Y153235D01*
G01X1404425Y153010D01*
G01X1404581Y152781D01*
G01X1404732Y152547D01*
G01X1404876Y152309D01*
G01X1405013Y152068D01*
G01X1405143Y151823D01*
G01X1405267Y151574D01*
G01X1405383Y151322D01*
G01X1405493Y151067D01*
G01X1405595Y150808D01*
G01X1405691Y150547D01*
G01X1405779Y150284D01*
G01X1405859Y150018D01*
G01X1405932Y149750D01*
G01X1405998Y149480D01*
G01X1406056Y149209D01*
G01X1406107Y148936D01*
G01X1406150Y148661D01*
G01X1406185Y148386D01*
G01X1406213Y148109D01*
G01X1406233Y147832D01*
G01X1406245Y147555D01*
G01X1406250Y147277D01*
G01X1406250Y147250D01*
X1426250Y137250D02*
X1426250Y147250D01*
X1386250Y137250D02*
X1386250Y147250D01*
X1406250Y137250D02*
X1406250Y147250D01*
G01X1126250Y91250D02*
G01X1126250Y91250D01*
G01X1126235Y90695D01*
G01X1126188Y90141D01*
G01X1126111Y89591D01*
G01X1126004Y89046D01*
G01X1125867Y88508D01*
G01X1125700Y87978D01*
G01X1125503Y87458D01*
G01X1125278Y86950D01*
G01X1125026Y86456D01*
G01X1124746Y85976D01*
G01X1124440Y85512D01*
G01X1124109Y85066D01*
G01X1123753Y84639D01*
G01X1123375Y84233D01*
G01X1122974Y83848D01*
G01X1122553Y83486D01*
G01X1122112Y83148D01*
G01X1121653Y82835D01*
G01X1121177Y82548D01*
G01X1120687Y82288D01*
G01X1120182Y82056D01*
G01X1119666Y81851D01*
G01X1119138Y81676D01*
G01X1118602Y81531D01*
G01X1118059Y81415D01*
G01X1117510Y81330D01*
G01X1116957Y81275D01*
G01X1116402Y81251D01*
G01X1116250Y81250D01*
G01X1096250Y81250D02*
G01X1096250Y81250D01*
G01X1095695Y81265D01*
G01X1095141Y81312D01*
G01X1094591Y81389D01*
G01X1094046Y81496D01*
G01X1093508Y81633D01*
G01X1092978Y81800D01*
G01X1092458Y81997D01*
G01X1091950Y82222D01*
G01X1091456Y82474D01*
G01X1090976Y82754D01*
G01X1090512Y83060D01*
G01X1090066Y83391D01*
G01X1089639Y83747D01*
G01X1089233Y84125D01*
G01X1088848Y84526D01*
G01X1088486Y84947D01*
G01X1088148Y85388D01*
G01X1087835Y85847D01*
G01X1087548Y86323D01*
G01X1087288Y86813D01*
G01X1087056Y87318D01*
G01X1086851Y87834D01*
G01X1086676Y88362D01*
G01X1086531Y88898D01*
G01X1086415Y89441D01*
G01X1086330Y89990D01*
G01X1086275Y90543D01*
G01X1086251Y91098D01*
G01X1086250Y91250D01*
X1116250Y81250D02*
X1096250Y81250D01*
X1126250Y91250D02*
X1126250Y101250D01*
X1086250Y91250D02*
X1086250Y101250D01*
X1086250Y101250D02*
X1106250Y101250D01*
X1106250Y101250D02*
X1106250Y91250D01*
X1106250Y114250D02*
X1086250Y114250D01*
G01X1101250Y124250D02*
G01X1101250Y124250D01*
G01X1101389Y124248D01*
G01X1101528Y124242D01*
G01X1101666Y124233D01*
G01X1101804Y124219D01*
G01X1101942Y124202D01*
G01X1102079Y124181D01*
G01X1102216Y124156D01*
G01X1102352Y124127D01*
G01X1102487Y124095D01*
G01X1102621Y124058D01*
G01X1102754Y124018D01*
G01X1102886Y123975D01*
G01X1103017Y123928D01*
G01X1103146Y123877D01*
G01X1103274Y123822D01*
G01X1103400Y123764D01*
G01X1103524Y123703D01*
G01X1103647Y123638D01*
G01X1103768Y123570D01*
G01X1103887Y123498D01*
G01X1104004Y123423D01*
G01X1104119Y123345D01*
G01X1104232Y123264D01*
G01X1104342Y123179D01*
G01X1104450Y123092D01*
G01X1104555Y123002D01*
G01X1104658Y122908D01*
G01X1104758Y122812D01*
G01X1104856Y122714D01*
G01X1104951Y122612D01*
G01X1105043Y122508D01*
G01X1105132Y122401D01*
G01X1105218Y122292D01*
G01X1105301Y122181D01*
G01X1105381Y122067D01*
G01X1105457Y121952D01*
G01X1105531Y121834D01*
G01X1105601Y121714D01*
G01X1105668Y121592D01*
G01X1105731Y121468D01*
G01X1105791Y121343D01*
G01X1105847Y121216D01*
G01X1105900Y121088D01*
G01X1105949Y120958D01*
G01X1105995Y120827D01*
G01X1106037Y120694D01*
G01X1106075Y120561D01*
G01X1106110Y120426D01*
G01X1106140Y120291D01*
G01X1106168Y120155D01*
G01X1106191Y120018D01*
G01X1106210Y119880D01*
G01X1106226Y119742D01*
G01X1106237Y119604D01*
G01X1106245Y119465D01*
G01X1106249Y119326D01*
G01X1106250Y119250D01*
G01X1106248Y119111D01*
G01X1106242Y118972D01*
G01X1106233Y118834D01*
G01X1106219Y118696D01*
G01X1106202Y118558D01*
G01X1106181Y118421D01*
G01X1106156Y118284D01*
G01X1106127Y118148D01*
G01X1106095Y118013D01*
G01X1106058Y117879D01*
G01X1106018Y117746D01*
G01X1105975Y117614D01*
G01X1105928Y117483D01*
G01X1105877Y117354D01*
G01X1105822Y117226D01*
G01X1105764Y117100D01*
G01X1105703Y116976D01*
G01X1105638Y116853D01*
G01X1105570Y116732D01*
G01X1105498Y116613D01*
G01X1105423Y116496D01*
G01X1105345Y116381D01*
G01X1105264Y116268D01*
G01X1105179Y116158D01*
G01X1105092Y116050D01*
G01X1105002Y115945D01*
G01X1104908Y115842D01*
G01X1104812Y115742D01*
G01X1104714Y115644D01*
G01X1104612Y115549D01*
G01X1104508Y115457D01*
G01X1104401Y115368D01*
G01X1104292Y115282D01*
G01X1104181Y115199D01*
G01X1104067Y115119D01*
G01X1103952Y115043D01*
G01X1103834Y114969D01*
G01X1103714Y114899D01*
G01X1103592Y114832D01*
G01X1103468Y114769D01*
G01X1103343Y114709D01*
G01X1103216Y114653D01*
G01X1103088Y114600D01*
G01X1102958Y114551D01*
G01X1102827Y114505D01*
G01X1102694Y114463D01*
G01X1102561Y114425D01*
G01X1102426Y114390D01*
G01X1102291Y114360D01*
G01X1102155Y114332D01*
G01X1102018Y114309D01*
G01X1101880Y114290D01*
G01X1101742Y114274D01*
G01X1101604Y114263D01*
G01X1101465Y114255D01*
G01X1101326Y114251D01*
G01X1101250Y114250D01*
X1101250Y124250D02*
X1086250Y124250D01*
G01X1106250Y147250D02*
G01X1106250Y147250D01*
G01X1106246Y146972D01*
G01X1106235Y146695D01*
G01X1106215Y146418D01*
G01X1106188Y146141D01*
G01X1106154Y145866D01*
G01X1106111Y145591D01*
G01X1106062Y145318D01*
G01X1106004Y145046D01*
G01X1105939Y144776D01*
G01X1105867Y144508D01*
G01X1105787Y144242D01*
G01X1105700Y143978D01*
G01X1105605Y143717D01*
G01X1105503Y143458D01*
G01X1105394Y143203D01*
G01X1105278Y142950D01*
G01X1105156Y142701D01*
G01X1105026Y142456D01*
G01X1104889Y142214D01*
G01X1104746Y141976D01*
G01X1104596Y141742D01*
G01X1104440Y141512D01*
G01X1104278Y141287D01*
G01X1104109Y141066D01*
G01X1103934Y140850D01*
G01X1103753Y140639D01*
G01X1103567Y140434D01*
G01X1103375Y140233D01*
G01X1103177Y140038D01*
G01X1102974Y139848D01*
G01X1102766Y139664D01*
G01X1102553Y139486D01*
G01X1102335Y139314D01*
G01X1102112Y139148D01*
G01X1101885Y138989D01*
G01X1101653Y138835D01*
G01X1101417Y138688D01*
G01X1101177Y138548D01*
G01X1100934Y138415D01*
G01X1100687Y138288D01*
G01X1100436Y138168D01*
G01X1100182Y138056D01*
G01X1099925Y137950D01*
G01X1099666Y137851D01*
G01X1099403Y137760D01*
G01X1099138Y137676D01*
G01X1098871Y137600D01*
G01X1098602Y137531D01*
G01X1098332Y137469D01*
G01X1098059Y137415D01*
G01X1097785Y137369D01*
G01X1097510Y137330D01*
G01X1097234Y137299D01*
G01X1096957Y137275D01*
G01X1096680Y137259D01*
G01X1096402Y137251D01*
G01X1096125Y137251D01*
G01X1095847Y137258D01*
G01X1095570Y137273D01*
G01X1095293Y137296D01*
G01X1095017Y137326D01*
G01X1094742Y137364D01*
G01X1094468Y137410D01*
G01X1094195Y137463D01*
G01X1093924Y137524D01*
G01X1093655Y137593D01*
G01X1093387Y137668D01*
G01X1093122Y137752D01*
G01X1092860Y137842D01*
G01X1092600Y137940D01*
G01X1092343Y138045D01*
G01X1092089Y138157D01*
G01X1091838Y138276D01*
G01X1091590Y138402D01*
G01X1091346Y138535D01*
G01X1091106Y138675D01*
G01X1090870Y138821D01*
G01X1090638Y138973D01*
G01X1090410Y139132D01*
G01X1090187Y139298D01*
G01X1089968Y139469D01*
G01X1089755Y139647D01*
G01X1089546Y139830D01*
G01X1089342Y140019D01*
G01X1089144Y140214D01*
G01X1088952Y140414D01*
G01X1088765Y140619D01*
G01X1088583Y140830D01*
G01X1088408Y141045D01*
G01X1088239Y141265D01*
G01X1088075Y141490D01*
G01X1087919Y141719D01*
G01X1087768Y141953D01*
G01X1087624Y142191D01*
G01X1087487Y142432D01*
G01X1087357Y142677D01*
G01X1087233Y142926D01*
G01X1087117Y143178D01*
G01X1087007Y143433D01*
G01X1086905Y143692D01*
G01X1086809Y143953D01*
G01X1086721Y144216D01*
G01X1086641Y144482D01*
G01X1086568Y144750D01*
G01X1086502Y145020D01*
G01X1086444Y145291D01*
G01X1086393Y145564D01*
G01X1086350Y145839D01*
G01X1086315Y146114D01*
G01X1086287Y146391D01*
G01X1086267Y146668D01*
G01X1086255Y146945D01*
G01X1086250Y147223D01*
G01X1086250Y147250D01*
X1106250Y147250D02*
X1106250Y157250D01*
X1086250Y147250D02*
X1086250Y157250D01*
X1126250Y157250D02*
X1086250Y157250D01*
%LPC*%
D12*
X1393750Y418750D03*
X4337500Y1456250D03*
X4337500Y356250D03*
X4337500Y1156250D03*
X3587500Y1656250D03*
X4337500Y256250D03*
X3587500Y1256250D03*
X3587500Y1956250D03*
X4337500Y1756250D03*
X3587500Y1856250D03*
X4337500Y1056250D03*
X3587500Y956250D03*
X1606250Y418750D03*
X3587500Y1156250D03*
X3587500Y1056250D03*
X4337500Y656250D03*
X2768750Y1356250D03*
X4337500Y956250D03*
X4337500Y1556250D03*
X3587500Y256250D03*
X143750Y412500D03*
X2768750Y1656250D03*
X3587500Y1556250D03*
X4337500Y556250D03*
X4337500Y2056250D03*
X1193750Y418750D03*
X2768750Y1756250D03*
X2768750Y1856250D03*
X4337500Y1956250D03*
X4337500Y2156250D03*
X4337500Y856250D03*
X4337500Y1256250D03*
X3587500Y756250D03*
X3587500Y656250D03*
X2768750Y1256250D03*
X2768750Y1156250D03*
X3587500Y1356250D03*
X3587500Y1456250D03*
X3587500Y1756250D03*
X4337500Y1656250D03*
X3587500Y2056250D03*
X4337500Y1856250D03*
X993750Y418750D03*
X593750Y412500D03*
X3587500Y2156250D03*
X2868750Y1970325D03*
X2768750Y1456250D03*
X4337500Y456250D03*
X3587500Y356250D03*
X4337500Y1356250D03*
X3587500Y556250D03*
X793750Y412500D03*
X4337500Y756250D03*
X143750Y187500D03*
X3587500Y856250D03*
X2768750Y1556250D03*
X3587500Y456250D03*
X1193750Y756250D03*
X1493750Y2156250D03*
X1193750Y956250D03*
X693750Y956250D03*
X893750Y956250D03*
X693750Y756250D03*
X2293750Y212500D03*
X2768750Y700000D03*
X1593750Y756250D03*
X1393750Y756250D03*
X1506250Y218750D03*
X1093750Y756250D03*
X493750Y2156250D03*
X1893750Y212500D03*
X1193750Y2156250D03*
X893750Y2156250D03*
X993750Y756250D03*
X1693750Y756250D03*
X293750Y956250D03*
X1793750Y2156250D03*
X275000Y343750D03*
X2668750Y700000D03*
X993750Y2156250D03*
X1693750Y956250D03*
X593750Y756250D03*
X575000Y218750D03*
X493750Y756250D03*
X193750Y756250D03*
X1093750Y2156250D03*
X1393750Y2156250D03*
X1893750Y956250D03*
X1993750Y212500D03*
X593750Y2156250D03*
X293750Y756250D03*
X2093750Y212500D03*
X793750Y956250D03*
X2468750Y700000D03*
X1293750Y956250D03*
X2368750Y700000D03*
X593750Y956250D03*
X1593750Y956250D03*
X193750Y956250D03*
X393750Y2156250D03*
X193750Y2156250D03*
X1206250Y218750D03*
X1306250Y218750D03*
X2193750Y212500D03*
X93750Y2156250D03*
X893750Y756250D03*
X1793750Y956250D03*
X775000Y218750D03*
X675000Y218750D03*
X1293750Y756250D03*
X693750Y2156250D03*
X793750Y756250D03*
X1593750Y2156250D03*
X1406250Y218750D03*
X1493750Y956250D03*
X1393750Y956250D03*
X2568750Y700000D03*
X1293750Y2156250D03*
X1093750Y956250D03*
X1793750Y756250D03*
X393750Y956250D03*
X993750Y956250D03*
X293750Y2156250D03*
X93750Y956250D03*
X793750Y2156250D03*
X1493750Y756250D03*
X93750Y756250D03*
X493750Y956250D03*
X2268750Y700000D03*
X275000Y512500D03*
X393750Y756250D03*
X1693750Y2156250D03*
X1106250Y218750D03*
X3737500Y2056250D03*
X3737500Y856250D03*
X3737500Y1056250D03*
X3737500Y1956250D03*
X2987500Y1956250D03*
X3737500Y1656250D03*
X2987500Y1756250D03*
X2987500Y256250D03*
X3737500Y556250D03*
X2468750Y1456250D03*
X3737500Y1356250D03*
X3737500Y1556250D03*
X2987500Y1256250D03*
X3737500Y756250D03*
X2987500Y956250D03*
X2987500Y556250D03*
X2987500Y656250D03*
X2987500Y1056250D03*
X2987500Y1356250D03*
X3737500Y256250D03*
X2987500Y1856250D03*
X3737500Y456250D03*
X2987500Y1656250D03*
X3737500Y1256250D03*
X2468750Y1356250D03*
X3737500Y1856250D03*
X2987500Y2056250D03*
X2468750Y1556250D03*
X2987500Y1156250D03*
X2987500Y1456250D03*
X3737500Y1756250D03*
X2468750Y1156250D03*
X3737500Y1156250D03*
X2987500Y756250D03*
X2468750Y1756250D03*
X2468750Y1256250D03*
X2987500Y1556250D03*
X3737500Y656250D03*
X2468750Y1656250D03*
X2987500Y856250D03*
X2987500Y456250D03*
X3737500Y1456250D03*
X3737500Y956250D03*
X2987500Y356250D03*
X3737500Y356250D03*
X2268750Y800000D03*
X2668750Y800000D03*
X1793750Y1956250D03*
X1493750Y1956250D03*
X2568750Y800000D03*
X693750Y1956250D03*
X1293750Y1956250D03*
X893750Y1956250D03*
X993750Y1956250D03*
X93750Y1956250D03*
X593750Y1956250D03*
X2692175Y1987500D03*
X493750Y1956250D03*
X1093750Y1956250D03*
X2468750Y800000D03*
X2368750Y800000D03*
X793750Y1956250D03*
X1393750Y1956250D03*
X193750Y1956250D03*
X1693750Y1956250D03*
X1593750Y1956250D03*
X293750Y1956250D03*
X393750Y1956250D03*
X1193750Y1956250D03*
D13*
X593750Y512500D03*
X793750Y512500D03*
X143750Y512500D03*
X1193750Y518750D03*
X1393750Y518750D03*
X1606250Y518750D03*
X2868750Y2167175D03*
X143750Y287500D03*
X993750Y518750D03*
D14*
X2393750Y212500D03*
X875000Y218750D03*
X375000Y512500D03*
X375000Y343750D03*
X1893750Y756250D03*
X1606250Y218750D03*
X1893750Y2156250D03*
D15*
X3737500Y2156250D03*
X2468750Y1856250D03*
X2987500Y2156250D03*
D16*
X2768750Y800000D03*
X1893750Y1956250D03*
X2495325Y1987500D03*
M02*
